<?xml version="1.0" encoding="UTF-8"?>
<svg width="24px" height="24px" viewBox="0 0 24 24" version="1.1" xmlns="http://www.w3.org/2000/svg" xmlns:xlink="http://www.w3.org/1999/xlink">
    <title>Groupe</title>
    <g id="Icones_Outline" stroke="none" stroke-width="1" fill="none" fill-rule="evenodd">
        <g id="Groupe" fill="#000000" stroke="#000000" stroke-width="0.3">
            <g id="Ico_GROUP" transform="translate(2.000000, 3.000000)">
                <path d="M14.7800222,0.841364651 C13.9569187,0.849008937 13.1801392,1.47855289 13.0036206,2.29673809 C12.8722068,2.90704803 13.0716436,3.58023838 13.5139155,4.01670246 C14.0186027,4.51530719 14.8180566,4.68224853 15.4834148,4.40705423 C16.2543429,4.08796693 16.7446453,3.18865366 16.5917763,2.35320717 C16.4403701,1.52639132 15.6852897,0.86109184 14.8275652,0.84161124 C14.8117175,0.841364651 14.7958699,0.841364651 14.7800222,0.841364651 M5.19608441,0.841364651 C4.36591045,0.849008937 3.58303568,1.48940284 3.4148066,2.31942436 C3.29265765,2.92307637 3.49233826,3.58492359 3.92973388,4.01670246 C4.43442113,4.51530719 5.23411881,4.68224853 5.89923322,4.40705423 C6.48413405,4.16514956 6.92689349,3.59749967 7.01880996,2.96302393 C7.16387707,1.96211563 6.37588229,0.912629124 5.32579147,0.845063499 C5.28263705,0.84235101 5.23948263,0.841364651 5.19608441,0.841364651 M9.98524948,5.68807285 C8.93905962,5.69819881 7.95114042,6.50972609 7.74560837,7.55822623 C7.59761554,8.31279125 7.84898392,9.13640143 8.39487511,9.6752003 C9.02780656,10.3003056 10.0323049,10.5106468 10.8680865,10.165421 C11.607563,9.85940294 12.1649133,9.13837415 12.2758469,8.33769682 C12.4116493,7.35750207 11.8535676,6.31565986 10.9578086,5.89916956 C10.654021,5.75787356 10.3158562,5.68685568 9.98524948,5.68807285 M13.1706306,4.81096844 C12.6349795,4.3833816 12.2509783,3.7550706 12.1556485,3.06856439 C12.0400824,2.23509062 12.3367995,1.35476477 12.9326718,0.766154739 C13.4195609,0.285304484 14.0912582,0.00641133673 14.7749022,-2.30926389e-14 L14.8090356,-2.30926389e-14 C15.7891529,0.00912382534 16.7309919,0.601925883 17.1700942,1.48126537 C17.5358096,2.21437707 17.5440992,3.11985509 17.1915495,3.8598713 C17.0128366,4.23419473 16.7434263,4.55772064 16.4169643,4.80899573 C16.9560288,4.98777338 17.4668113,5.25433704 17.920786,5.59980945 C19.2042033,6.57655194 19.9973181,8.16631686 20,9.81082473 L20,10.1141303 C19.9985371,10.1454472 19.9992686,10.1538312 19.9941486,10.1851482 C19.9378284,10.5163184 19.4075411,10.6573678 19.2210262,10.3192931 C19.1893309,10.2620842 19.1729956,10.2302741 19.1681194,10.1141303 C19.1681194,9.82463377 19.1690946,9.53415089 19.1330107,9.24687369 C18.9367434,7.68546661 17.8530068,6.26757483 16.3840499,5.68710227 C15.1152613,5.18553846 13.6182663,5.3428628 12.4630932,6.0661109 C12.5949946,6.23305225 12.710073,6.41355604 12.8041838,6.60540296 C13.226707,7.4640289 13.2332899,8.52017333 12.8212505,9.38471743 C12.585486,9.87937672 12.2151382,10.2988261 11.7677463,10.6070634 C13.0482379,11.0001277 14.2065804,11.8042573 14.9996952,12.8951709 C15.7764747,13.9631516 16.2043618,15.2722973 16.2065561,16.6137462 L16.2065561,16.9799321 C16.1890017,17.3120887 15.7691604,17.5268685 15.5119406,17.2928547 C15.4470871,17.2336731 15.4017384,17.1540246 15.3836964,17.0677181 C15.3754069,17.0290035 15.3763821,17.0188933 15.3744316,16.9799321 C15.3744316,16.5730589 15.3712621,16.1642128 15.3078714,15.7620248 C15.0187124,13.9180257 13.7291999,12.2688326 11.9959527,11.5670378 C10.1498214,10.8198705 7.90213456,11.2023314 6.39294901,12.5844676 C5.28409991,13.6001713 4.62776268,15.0898208 4.62556838,16.6144859 L4.62556838,16.9799321 C4.6236179,17.0188933 4.62459314,17.0290035 4.6165474,17.0677181 C4.54901196,17.3885316 4.03871707,17.5221833 3.84927649,17.1905199 C3.75784764,17.0299899 3.79320013,16.8070726 3.79368775,16.5947588 C3.79929539,15.3152039 4.20036328,14.0366354 4.93325694,12.988875 C5.72588412,11.855548 6.90153722,11.0149231 8.21933172,10.608543 C7.77803513,10.2978397 7.41280735,9.87567787 7.1787495,9.38471743 C6.76671015,8.51992674 6.7728054,7.46526185 7.19557241,6.60540296 C7.2904146,6.41281627 7.40549305,6.23157271 7.53788202,6.06413818 C6.11549292,5.16334537 4.1533079,5.17098966 2.72896832,6.16326731 C1.56843145,6.97183551 0.834074923,8.36950692 0.83188063,9.81131791 L0.83188063,10.1141303 C0.830661579,10.1454472 0.83139301,10.1538312 0.826029184,10.1851482 C0.769709012,10.5173047 0.236739769,10.6519428 0.0529068279,10.3192931 C0.0212114932,10.2620842 0.00487620534,10.2302741 0,10.1141303 C0,9.79381003 0.000975241067,9.47373637 0.0397410735,9.15736157 C0.275993222,7.23100147 1.64962027,5.49278945 3.47746584,4.84154559 C3.51159927,4.82946268 3.54597652,4.81762637 3.58059758,4.80603665 C3.04811596,4.37869639 2.66630908,3.7526047 2.57146688,3.0683178 C2.45395034,2.21955546 2.76505224,1.32147514 3.38311126,0.732618516 C3.86634321,0.272235221 4.52048616,0.00616474685 5.19072058,-2.30926389e-14 L5.22509783,-2.30926389e-14 C6.22081896,0.00912382534 7.17704283,0.623379202 7.60736795,1.52515837 C7.9530909,2.24988601 7.9530909,3.13514366 7.60736795,3.8598713 C7.42865502,4.23468791 7.15851324,4.55846041 6.83180749,4.80998208 C7.30114225,4.96533371 7.7487779,5.18677141 8.15545343,5.46837705 C8.68062074,5.08197072 9.32159793,4.85313531 9.97988565,4.84672398 L10.0203582,4.84672398 C10.672063,4.85313531 11.3149907,5.08197072 11.8430837,5.46961 C12.248784,5.18899072 12.6993454,4.96705983 13.1706306,4.81096844" id="Page-1"></path>
            </g>
        </g>
    </g>
</svg>