<svg xmlns="http://www.w3.org/2000/svg" width="69.925" height="24.099" viewBox="0 0 69.925 24.099"><defs><style>.a,.b{fill:#fff;}.b{stroke:#fff;stroke-miterlimit:10;stroke-width:0.5px;}</style></defs><g transform="translate(0 0.25)"><g transform="translate(0 0)"><path class="a" d="M0,16.376H0V14.693a4.528,4.528,0,0,0,3.191-1.345,4.519,4.519,0,0,0,1.32-3.2V4.162H6.189v5.981A6.218,6.218,0,0,1,0,16.376ZM5.35,2.275A1.137,1.137,0,0,1,4.217,1.137,1.123,1.123,0,0,1,5.35,0,1.137,1.137,0,0,1,6.484,1.137,1.151,1.151,0,0,1,5.35,2.275Z" transform="translate(0 3.497)"/><path class="a" d="M14.486,12.373V4.458a2.788,2.788,0,0,0-5.577.023v7.892H7.232V4.458a2.777,2.777,0,1,0-5.554.023v7.892H0V4.458A4.449,4.449,0,0,1,8.07,1.865a4.464,4.464,0,0,1,8.093,2.616v7.892Z" transform="translate(20.949 7.386)"/><path class="a" d="M1.972,16.262H.294V4.162H1.972v12.1ZM1.134,2.275A1.123,1.123,0,0,1,0,1.138a1.133,1.133,0,1,1,2.267,0A1.123,1.123,0,0,1,1.134,2.275Z" transform="translate(37.998 3.497)"/><path class="a" d="M12.419,12.46H6.209a6.23,6.23,0,1,1,6.21-6.229v6.228ZM6.209,1.643a4.587,4.587,0,0,0,0,9.174h4.573V6.23A4.585,4.585,0,0,0,6.209,1.643Z" transform="translate(7.458 7.443)"/><path class="a" d="M1.972,16.262H.3V4.162H1.972v12.1ZM1.134,2.275A1.123,1.123,0,0,1,0,1.138a1.134,1.134,0,1,1,2.268,0A1.123,1.123,0,0,1,1.134,2.275Z" transform="translate(49.711 3.497)"/><path class="a" d="M5.076,12.086H0V0H5.076A7.356,7.356,0,0,1,8.467.76a5.6,5.6,0,0,1,2.3,2.132,6.068,6.068,0,0,1,.817,3.152,6.06,6.06,0,0,1-.817,3.151,5.6,5.6,0,0,1-2.3,2.133A7.367,7.367,0,0,1,5.076,12.086ZM1.72,1.5v9.082H4.973a5.575,5.575,0,0,0,2.573-.57,4.124,4.124,0,0,0,1.712-1.6,4.626,4.626,0,0,0,.6-2.374,4.633,4.633,0,0,0-.6-2.375,4.132,4.132,0,0,0-1.712-1.6A5.587,5.587,0,0,0,4.973,1.5Z" transform="translate(52.724 7.666)"/><path class="b" d="M20.043,23.6H0V4.987A4.975,4.975,0,0,1,4.951,0H20.043a4.975,4.975,0,0,1,4.952,4.987V18.612A4.975,4.975,0,0,1,20.043,23.6ZM4.951.58A4.4,4.4,0,0,0,.575,4.987V23.02H20.043a4.4,4.4,0,0,0,4.375-4.408V4.987A4.4,4.4,0,0,0,20.043.58Z" transform="translate(44.68)"/></g></g></svg>