<svg xmlns="http://www.w3.org/2000/svg" width="212.553" height="245.289" viewBox="0 0 212.553 245.289"><defs><style>.a,.m{fill:none;}.a{stroke:#002133;}.a,.d,.h,.j,.m{stroke-miterlimit:10;}.b{fill:#002133;}.c,.d,.h,.l{fill:#129bf8;}.d,.h,.j{stroke:#005699;}.d{stroke-linejoin:round;}.e{fill:#f1916d;}.f,.k{fill:#005699;}.g{fill:#014472;}.i{fill:#d26e4d;}.j{fill:#8282f4;}.k,.l{opacity:0.3;}.m{stroke:#129bf8;stroke-linecap:round;stroke-width:3px;}</style></defs><g transform="translate(-140.706 -107.044)"><g transform="translate(230.682 107.561)"><path class="a" d="M313.1,114.363s9.652-9.729,26.386-5.915,21.4,31.056,21.4,31.056" transform="translate(-272.051 -107.561)"/><path class="a" d="M297.752,115.05s-16.268-1.868-21.327,6.616-.389,25.608-3.5,28.721-15.334,14.555-11.987,26.308,15.022,16.657,7.628,27.865" transform="translate(-260.361 -109.182)"/></g><g transform="translate(140.706 108.866)"><path class="b" d="M303.475,112.4s-22.65-2.569-27.32,9.885-4.67,21.015-8.562,25.686-11.675,15.567-7.005,21.794,9.5,9.34,7.083,16.345-3.97,9.34-3.97,9.34A36.906,36.906,0,0,1,268.138,190c1.79-1.557,1.012,7.005,1.012,7.005s16.735-10.43,27.4-11.442,30.434,7.783,30.434,7.783a34.741,34.741,0,0,0,2.88,10.663c2.335,4.67-2.335,60.711,13.232,54.485s16.345-7.005,24.907-6.227S388.237,210.238,379.675,190c-4.125-9.729-17.513-21.794-17.124-31.912.778-18.68-10.118-26.464-19.459-31.134s-3.892-12.454-14.01-15.567C320.6,108.819,308.145,107.885,303.475,112.4Z" transform="translate(-170.115 -109.237)"/><ellipse class="c" cx="7.005" cy="8.562" rx="7.005" ry="8.562" transform="translate(102.926 41.846)"/><path class="d" d="M332.686,366.173s10.586.156,11.364,3.269,3.658,4.826-11.364,14.088-28.955,17.046-28.955,17.046-5.6,3.113-11.053,2.335S187.117,382.24,187.117,382.24l-.8-2.971,14.831-32Z" transform="translate(-177.636 -160.1)"/><path class="e" d="M310.12,372.675s-4.047,9.029-12.22,8.718l.623-17.669c-.156.156,8.173-2.024,8.173-2.024Z" transform="translate(-178.706 -165.195)"/><path class="f" d="M289.579,207.3c-.156-.234-22.105,3.814-34.092,16.19s-12.765,39.618-18.213,45.067a118.923,118.923,0,0,0-9.574,10.9l34.481,4.67s18.68,1.868,21.794,6.382,1.557,13.076,1.557,13.076l24.518,4.281s-10.586,11.364-21.015,15.178,7.472,18.213,7.472,18.213a156.956,156.956,0,0,1,23.584-5.215c11.364-1.4,25.374-15.333,35.493-27.787s12.454-62.268.778-77.057c0,0-3.892-10.9-39.7-21.015" transform="translate(-163.146 -130.97)"/><path class="g" d="M255.487,223.487c-11.987,12.376-12.765,39.618-18.213,45.067a118.931,118.931,0,0,0-9.574,10.9l33.236,4.514c-.311-7.628-2.335-25.686,3.58-37.983,8.562-17.9,30.044-34.247,30.044-34.247l-1.946-3.892-3.036-.545C289.423,207.064,267.474,211.189,255.487,223.487Z" transform="translate(-163.146 -130.97)"/><path class="h" d="M257.191,383.237,156.239,359.108a6.157,6.157,0,0,1-4.9-7.161L149,289.834c.623-3.347,8.484-8.173,11.753-7.55L265.6,302.521a6.157,6.157,0,0,1,4.9,7.161l-2.179,64.759C267.7,377.788,260.538,383.859,257.191,383.237Z" transform="translate(-145.703 -147.581)"/><path class="e" d="M306,203.44s3.113,7.005,1.557,10.9,7.783,7.784,14.01,7.005,14.789-3.892,15.567-6.227,0-4.67-3.113-7.005-7.784-4.67-8.173-8.951S306,203.44,306,203.44Z" transform="translate(-180.501 -128.903)"/><path class="i" d="M328.761,204.051a7.21,7.21,0,0,1-2.413-4.592c-.389-4.281-19.848,4.281-19.848,4.281a13.1,13.1,0,0,1,.623,1.557,62.842,62.842,0,0,0,8.017.545A47.761,47.761,0,0,0,328.761,204.051Z" transform="translate(-180.612 -128.969)"/><path class="e" d="M300.844,141.2s-.389,1.012-5.059,4.125-7.005,3.892-8.562,7.784-.778,13.232-.778,16.345,3.892,17.9,12.454,21.016,14.01.778,17.9-1.557,4.67-3.892,4.67-3.892-4.67-7.005-1.557-10.9,7.784-15.567-1.557-19.459S297.341,146.337,300.844,141.2Z" transform="translate(-176.124 -116.322)"/><g transform="translate(119.739 24.8)"><path class="i" d="M304.9,141.256a.241.241,0,0,0,.078-.156A.272.272,0,0,1,304.9,141.256Z" transform="translate(-299.996 -141.1)"/><path class="i" d="M321.094,154.688c-9.262-3.892-20.782-8.251-17.591-13.388-.233.389-1.245,1.479-4.9,3.97,3.113,8.017,18.836,12.064,27.164,13.621A8.664,8.664,0,0,0,321.094,154.688Z" transform="translate(-298.6 -141.144)"/></g><path class="g" d="M327.725,323.036s16.345-17.9,16.345-21.638V274c-3.5,28.41-22.027,40.4-34.87,45.378Z" transform="translate(-181.211 -145.757)"/><path class="f" d="M254.617,385.03,149.773,364.793a6.158,6.158,0,0,1-4.9-7.161l2.179-64.759a6.158,6.158,0,0,1,7.161-4.9l104.844,20.237a6.158,6.158,0,0,1,4.9,7.161l-2.179,64.759A6.157,6.157,0,0,1,254.617,385.03Z" transform="translate(-144.764 -148.83)"/><line class="j" y1="21.015" x2="33.858" transform="translate(122.827 212.845)"/><path class="k" d="M133,240.778h22.75a7.036,7.036,0,0,0,6.825-7.192v-5.394A7.036,7.036,0,0,0,155.75,221H139.825A7.036,7.036,0,0,0,133,228.192Z" transform="translate(-119.216 -130.563)"/><path class="k" d="M133,232.948h13.743a4.251,4.251,0,0,0,4.123-4.345v-3.259A4.251,4.251,0,0,0,146.743,221h-9.62A4.251,4.251,0,0,0,133,225.345Z" transform="translate(-119.508 -172.563)"/><path class="k" d="M133,234.664h15.717a4.861,4.861,0,0,0,4.715-4.969v-3.727A4.861,4.861,0,0,0,148.718,221h-11A4.861,4.861,0,0,0,133,225.969Z" transform="translate(40.784 6.746)"/><path class="l" d="M200.105,198.778H168.825A7.036,7.036,0,0,1,162,191.586v-5.394A7.036,7.036,0,0,1,168.825,179h24.456a7.036,7.036,0,0,1,6.825,7.192Z" transform="translate(-131.723 -113.563)"/><path class="l" d="M188.327,192.665H166.715A4.861,4.861,0,0,1,162,187.7v-3.727A4.861,4.861,0,0,1,166.715,179h16.9a4.861,4.861,0,0,1,4.715,4.969Z" transform="translate(23.179 31.355)"/><ellipse class="c" cx="7.005" cy="8.951" rx="7.005" ry="8.951" transform="translate(152.741 39.511)"/><ellipse class="f" cx="4.281" cy="5.448" rx="4.281" ry="5.448" transform="translate(155.076 43.403)"/><path class="m" d="M290,135.137s6.149-12.064,15.878-13.232c22.65-2.724,30.823,11.675,30.823,29.577" transform="translate(-176.955 -111.972)"/><path class="m" d="M343.528,183s-5.448,8.328-22.728,9.807" transform="translate(-183.782 -125.587)"/><path class="f" d="M317.961,198.059h-5.215a1.927,1.927,0,0,1-1.946-1.946v-1.168A1.927,1.927,0,0,1,312.746,193h5.215a1.927,1.927,0,0,1,1.946,1.946v1.168A1.927,1.927,0,0,1,317.961,198.059Z" transform="translate(-181.565 -127.803)"/></g></g></svg>