<?xml version="1.0" encoding="utf-8"?>
<!-- Generator: Adobe Illustrator 24.3.0, SVG Export Plug-In . SVG Version: 6.00 Build 0)  -->
<svg version="1.1" id="Layer_1" xmlns="http://www.w3.org/2000/svg" xmlns:xlink="http://www.w3.org/1999/xlink" x="0px" y="0px"
	 viewBox="0 0 24 24" style="enable-background:new 0 0 24 24;" xml:space="preserve">
<g>
	<path d="M11.9,16.8C11.9,16.8,11.9,16.8,11.9,16.8c-0.2,0-0.5,0.1-0.6,0.3c-0.2,0.2-0.3,0.4-0.3,0.6c0,0.2,0.1,0.5,0.3,0.6
		c0.2,0.2,0.4,0.3,0.6,0.3c0.2,0,0.5-0.1,0.6-0.3c0.2-0.2,0.3-0.4,0.3-0.6c0-0.2-0.1-0.5-0.3-0.6S12.1,16.8,11.9,16.8z"/>
	<path d="M14.5,6.4c-0.7-0.6-1.5-1-2.5-1c-0.9,0-1.8,0.4-2.5,1c-0.7,0.7-1,1.5-1,2.5c0,0.3,0.2,0.5,0.4,0.6c0.2,0.1,0.5,0.1,0.8,0
		c0.2-0.1,0.4-0.4,0.4-0.7c0-0.6,0.4-1.2,0.9-1.5c0.5-0.3,1.2-0.3,1.8,0c0.5,0.3,0.9,0.9,0.9,1.5c0,0.8-0.6,1.4-1.2,1.7
		c-1.2,0.7-1.6,1.8-1.5,2.5v1.5c0,0.2,0.1,0.4,0.3,0.6c0.2,0.2,0.4,0.2,0.6,0.2c0.2,0,0.5-0.1,0.6-0.2c0.2-0.2,0.2-0.4,0.2-0.6v-1.6
		c0-0.1,0-0.5,0.7-1l0,0c1.3-0.8,2-1.9,2-3.1C15.5,7.9,15.1,7,14.5,6.4z"/>
</g>
</svg>
