<svg xmlns="http://www.w3.org/2000/svg" height="24" viewBox="0 -960 960 960" width="24"><path d="M480-480ZM212.31-140Q182-140 161-161q-21-21-21-51.31v-535.38Q140-778 161-799q21-21 51.31-21h270q12.77 0 21.38 8.62 8.62 8.61 8.62 21.38t-8.62 21.38q-8.61 8.62-21.38 8.62h-270q-5.39 0-8.85 3.46t-3.46 8.85v535.38q0 5.39 3.46 8.85t8.85 3.46h535.38q5.39 0 8.85-3.46t3.46-8.85v-270q0-12.77 8.62-21.38 8.61-8.62 21.38-8.62t21.38 8.62q8.62 8.61 8.62 21.38v270Q820-182 799-161q-21 21-51.31 21H212.31Zm43.08-152.31h449.22L565-478.46 445-322.69l-85-108.08-104.61 138.46ZM680-680h-50q-12.77 0-21.38-8.62Q600-697.23 600-710t8.62-21.38Q617.23-740 630-740h50v-50q0-12.77 8.62-21.38Q697.23-820 710-820t21.38 8.62Q740-802.77 740-790v50h50q12.77 0 21.38 8.62Q820-722.77 820-710t-8.62 21.38Q802.77-680 790-680h-50v50q0 12.77-8.62 21.38Q722.77-600 710-600t-21.38-8.62Q680-617.23 680-630v-50Z"/></svg>