<svg id="assignment_ind_black_24dp" xmlns="http://www.w3.org/2000/svg" width="24" height="24" viewBox="0 0 24 24">
  <path id="Path_311" data-name="Path 311" d="M0,0H24V24H0Z" fill="none"/>
  <path id="Path_312" data-name="Path 312" d="M19,3H14.82A2.988,2.988,0,0,0,9.18,3H5A2.006,2.006,0,0,0,3,5V19a2.006,2.006,0,0,0,2,2H19a2.006,2.006,0,0,0,2-2V5A2.006,2.006,0,0,0,19,3Zm-7-.25a.767.767,0,1,1-.55.25A.749.749,0,0,1,12,2.75ZM19,19H5V5H19ZM12,6a3,3,0,1,0,3,3A3.009,3.009,0,0,0,12,6Zm0,4a1,1,0,1,1,1-1A1,1,0,0,1,12,10ZM6,16.47V18H18V16.47c0-2.5-3.97-3.58-6-3.58S6,13.96,6,16.47ZM8.31,16A7.011,7.011,0,0,1,12,14.88,6.982,6.982,0,0,1,15.69,16Z" fill="#005699"/>
</svg>
