<svg xmlns="http://www.w3.org/2000/svg" width="15.5" height="20" viewBox="0 0 15.5 20"><defs><style>.a{stroke:#000;stroke-miterlimit:10;stroke-width:0.25px;}</style></defs><g transform="translate(-768.5 -231)"><g transform="translate(773.984 239.07)"><path class="a" d="M1.833,8A1.835,1.835,0,0,1,0,6.167V1.333a1.333,1.333,0,0,1,2.667,0V5.667A.833.833,0,1,1,1,5.667V1.824a.167.167,0,1,1,.333,0V5.667a.5.5,0,0,0,1,0V1.333a1,1,0,0,0-2,0V6.167a1.5,1.5,0,0,0,3,0V1.617a.167.167,0,0,1,.333,0v4.55A1.835,1.835,0,0,1,1.833,8Z"/></g><path d="M14.2,2.3a1.135,1.135,0,0,0-.8-.3H5.5A1.155,1.155,0,0,0,4.3,3.2V20.8A1.155,1.155,0,0,0,5.5,22H18.6a1.155,1.155,0,0,0,1.2-1.2V8.4a1.136,1.136,0,0,0-.3-.8ZM18,7.7H14v-4Zm.6,13.2H5.5V3.2h7.4V7.7a1.155,1.155,0,0,0,1.2,1.2h4.5v12Z" transform="translate(764.2 229)"/></g></svg>