<svg xmlns="http://www.w3.org/2000/svg" width="15.5" height="20" viewBox="0 0 15.5 20"><g transform="translate(-768.5 -269)"><g transform="translate(769.2 272.54)"><path d="M9.151,4.747a.612.612,0,0,0-.9-.16L5.587,6.5H4.257A1,1,0,0,0,3.3,7.513V9.481a.989.989,0,0,0,.957.957H5.481l2.66,1.915a.449.449,0,0,0,.372.106.694.694,0,0,0,.691-.638V5.12A.467.467,0,0,0,9.151,4.747Zm-.585,7.074h0L5.906,9.96l-.16-.16H4.257a.343.343,0,0,1-.319-.319V7.513a.343.343,0,0,1,.319-.319H5.747l.16-.16,2.66-1.862v6.649Z" transform="translate(0)"/></g><path d="M14.2,2.3a1.135,1.135,0,0,0-.8-.3H5.5A1.155,1.155,0,0,0,4.3,3.2V20.8A1.155,1.155,0,0,0,5.5,22H18.6a1.155,1.155,0,0,0,1.2-1.2V8.4a1.136,1.136,0,0,0-.3-.8ZM18,7.7H14v-4Zm.6,13.2H5.5V3.2h7.4V7.7a1.155,1.155,0,0,0,1.2,1.2h4.5v12Z" transform="translate(764.2 267)"/></g></svg>