<svg xmlns="http://www.w3.org/2000/svg" width="26.503" height="26.5" viewBox="0 0 26.503 26.5">
  <g id="noun-backup-2912773" transform="translate(-51.27 -51.32)">
    <path id="Path_259" data-name="Path 259" d="M76.04,60.533H53a1.483,1.483,0,0,1-1.482-1.482v-6A1.483,1.483,0,0,1,53,51.57H76.04a1.483,1.483,0,0,1,1.482,1.482v6A1.483,1.483,0,0,1,76.04,60.533ZM53,52.014a1.038,1.038,0,0,0-1.037,1.037v6A1.038,1.038,0,0,0,53,60.089H76.04a1.038,1.038,0,0,0,1.037-1.037v-6a1.038,1.038,0,0,0-1.037-1.037Z" fill="#005699" stroke="#005699" stroke-width="0.5"/>
    <path id="Path_260" data-name="Path 260" d="M72.468,779.243H53.042a1.483,1.483,0,0,1-1.482-1.482v-6a1.483,1.483,0,0,1,1.482-1.482h16.2a.222.222,0,1,1,0,.444h-16.2A1.038,1.038,0,0,0,52,771.762v6a1.038,1.038,0,0,0,1.037,1.037H72.468a.222.222,0,1,1,0,.444Z" transform="translate(-0.039 -701.673)" fill="#005699" stroke="#005699" stroke-width="0.5"/>
    <path id="Path_261" data-name="Path 261" d="M723.843,728.9a5.093,5.093,0,1,1,5.093-5.093,5.1,5.1,0,0,1-5.093,5.093Zm0-9.741a4.649,4.649,0,1,0,3.079,1.166A4.642,4.642,0,0,0,723.843,719.156Z" transform="translate(-651.414 -651.328)" fill="#005699" stroke="#005699" stroke-width="0.5"/>
    <path id="Path_262" data-name="Path 262" d="M77.382,423.416a.222.222,0,0,1-.222-.222V412.138a.76.76,0,0,0-.759-.759H52.807a.76.76,0,0,0-.759.759v6.556a.76.76,0,0,0,.759.759H69.285a.222.222,0,1,1,0,.444H52.807a1.205,1.205,0,0,1-1.2-1.2v-6.556a1.205,1.205,0,0,1,1.2-1.2H76.4a1.205,1.205,0,0,1,1.2,1.2v11.056A.222.222,0,0,1,77.382,423.416Z" transform="translate(-0.081 -350.845)" fill="#005699" stroke="#005699" stroke-width="0.5"/>
    <path id="Path_263" data-name="Path 263" d="M168.967,149.643a.222.222,0,0,1-.222-.222v-3.889a.222.222,0,1,1,.444,0v3.889A.222.222,0,0,1,168.967,149.643Z" transform="translate(-114.446 -91.518)" fill="#005699" stroke="#005699" stroke-width="0.5"/>
    <path id="Path_264" data-name="Path 264" d="M168.967,524.643a.222.222,0,0,1-.222-.222v-3.889a.222.222,0,1,1,.444,0v3.889A.222.222,0,0,1,168.967,524.643Z" transform="translate(-114.446 -457.629)" fill="#005699" stroke="#005699" stroke-width="0.5"/>
    <path id="Path_265" data-name="Path 265" d="M168.967,899.623a.222.222,0,0,1-.222-.222v-3.889a.222.222,0,1,1,.444,0V899.4A.222.222,0,0,1,168.967,899.623Z" transform="translate(-114.446 -823.72)" fill="#005699" stroke="#005699" stroke-width="0.5"/>
    <path id="Path_266" data-name="Path 266" d="M498.2,171.417a1.333,1.333,0,1,1,1.333-1.333A1.335,1.335,0,0,1,498.2,171.417Zm0-2.222a.889.889,0,1,0,.889.889A.89.89,0,0,0,498.2,169.194Z" transform="translate(-434.793 -114.402)" fill="#005699" stroke="#005699" stroke-width="0.5"/>
    <path id="Path_267" data-name="Path 267" d="M709.143,171.417a1.333,1.333,0,1,1,1.333-1.333A1.335,1.335,0,0,1,709.143,171.417Zm0-2.222a.889.889,0,1,0,.889.889A.89.89,0,0,0,709.143,169.194Z" transform="translate(-640.733 -114.402)" fill="#005699" stroke="#005699" stroke-width="0.5"/>
    <path id="Path_268" data-name="Path 268" d="M920.083,171.417a1.333,1.333,0,1,1,1.333-1.333A1.335,1.335,0,0,1,920.083,171.417Zm0-2.222a.889.889,0,1,0,.889.889A.89.89,0,0,0,920.083,169.194Z" transform="translate(-846.673 -114.402)" fill="#005699" stroke="#005699" stroke-width="0.5"/>
    <path id="Path_269" data-name="Path 269" d="M826.331,853.344h-.015a.222.222,0,0,1-.17-.1l-1.111-1.667a.222.222,0,1,1,.37-.247l.95,1.425,3.7-4.226a.222.222,0,0,1,.335.293l-3.889,4.445a.223.223,0,0,1-.167.076Z" transform="translate(-755.142 -777.995)" fill="#005699" stroke="#005699" stroke-width="0.5"/>
  </g>
</svg>
