<svg xmlns="http://www.w3.org/2000/svg" width="7.981" height="10.859" viewBox="0 0 7.981 10.859"><defs><style>.a{isolation:isolate;}.b{fill:#004688;}</style></defs><g class="a" transform="translate(-538.1 -437.472)"><path class="b" d="M541.8,447.071q2.281,0,2.281-1.559a1.561,1.561,0,0,0-.2-.818,1.97,1.97,0,0,0-.547-.585,3.841,3.841,0,0,0-.789-.427q-.441-.18-.937-.361a9.534,9.534,0,0,1-1.079-.442,3.765,3.765,0,0,1-.886-.585,2.473,2.473,0,0,1-.592-.8,2.635,2.635,0,0,1-.217-1.125,2.606,2.606,0,0,1,.929-2.13,3.932,3.932,0,0,1,2.566-.764,6.755,6.755,0,0,1,1.716.2,3.948,3.948,0,0,1,1.133.442l-.465,1.186a4.092,4.092,0,0,0-.937-.383,5.034,5.034,0,0,0-1.447-.188,3.268,3.268,0,0,0-.781.09,2.023,2.023,0,0,0-.63.271,1.344,1.344,0,0,0-.427.457,1.3,1.3,0,0,0-.157.652,1.376,1.376,0,0,0,.165.705,1.609,1.609,0,0,0,.464.5,4.031,4.031,0,0,0,.7.4q.4.18.878.359.675.271,1.237.54a4.061,4.061,0,0,1,.975.646,2.568,2.568,0,0,1,.637.892,3.116,3.116,0,0,1,.226,1.252,2.455,2.455,0,0,1-1,2.1,4.672,4.672,0,0,1-2.813.734,7.233,7.233,0,0,1-1.133-.082,8.4,8.4,0,0,1-.921-.2,5.286,5.286,0,0,1-.7-.241c-.2-.084-.347-.157-.458-.216l.436-1.2a6.4,6.4,0,0,0,1.05.435A5.389,5.389,0,0,0,541.8,447.071Z"/><path class="b" d="M538.1,444.8v-1.185h7.981V444.8Z"/></g></svg>