<?xml version="1.0" encoding="utf-8"?>
<!-- Generator: Adobe Illustrator 24.3.0, SVG Export Plug-In . SVG Version: 6.00 Build 0)  -->
<svg version="1.1" id="Layer_1" xmlns="http://www.w3.org/2000/svg" xmlns:xlink="http://www.w3.org/1999/xlink" x="0px" y="0px"
	 viewBox="0 0 24 24" style="enable-background:new 0 0 24 24;" xml:space="preserve">
<g id="Icones_Outline">
	<g id="Camera_Black_24dp">
		<g id="Ico_Camera" transform="translate(2.000000, 4.000000)">
			<g id="Fill-1">
				<path d="M1.6,16.3c-0.4,0-0.8-0.2-1.1-0.5c-0.2-0.2-0.4-0.6-0.4-0.9l0-0.2l0-11C0,3.4,0.2,3,0.5,2.7C0.7,2.4,1,2.3,1.3,2.2
					l0.2,0l4.4,0l1.2-2.5h5.7l1.2,2.5h4.3c0.4,0,0.8,0.2,1.1,0.5c0.2,0.2,0.4,0.6,0.4,0.9l0,0.2l0,11c0,0.4-0.2,0.8-0.5,1.1
					c-0.2,0.2-0.6,0.4-0.9,0.4l-0.2,0L1.6,16.3z M1.6,3.7L1.6,3.7l-0.1,11l0,0.1l17,0l0.1,0l0-11l0-0.1l-5.3,0L12,1.2H8L6.8,3.7H1.6
					z M10,13.4c-1.2,0-2.3-0.5-3.2-1.3c-0.8-0.8-1.3-2-1.3-3.2c0-1.2,0.5-2.3,1.3-3.2c0.8-0.8,2-1.3,3.2-1.3c1.2,0,2.3,0.5,3.2,1.3
					c0.8,0.8,1.3,2,1.3,3.2s-0.5,2.3-1.3,3.2C12.3,12.9,11.2,13.4,10,13.4z M10,5.9c-0.8,0-1.6,0.3-2.1,0.9S7,8.1,7,8.9
					c0,0.8,0.3,1.6,0.9,2.1c1.1,1.1,3.1,1.1,4.3,0c0.6-0.6,0.9-1.3,0.9-2.1c0-0.8-0.3-1.6-0.9-2.1C11.6,6.2,10.8,5.9,10,5.9z"/>
			</g>
		</g>
	</g>
</g>
</svg>
