<svg xmlns="http://www.w3.org/2000/svg" width="15" height="15" viewBox="0 0 15 15"><g transform="translate(-74.997 -75.001)"><path class="a" d="M581.25,75.269V89.734a.268.268,0,0,0,.536,0V75.269a.268.268,0,1,0-.536,0Z" transform="translate(-499.02)"/><path class="a" d="M75.412,330.394a.8.8,0,0,0-.415.7v6.335a.8.8,0,0,0,1.248.67l4.913-3.271a.8.8,0,0,0-.019-1.339l-4.913-3.078a.8.8,0,0,0-.814-.016Z" transform="translate(0 -251.642)"/><path class="a" d="M675.856,330.788a.8.8,0,0,0-.8.021l-4.915,3.062a.8.8,0,0,0-.019,1.339l4.9,3.281a.8.8,0,0,0,1.248-.67v-6.335a.8.8,0,0,0-.415-.7Zm-3.731,5.127-1.666-1.109h5.277v1.071h-3.482a.269.269,0,0,0-.129.037Zm.1-2.716h3.506v1.071H670.51Zm3.1-1.934a.265.265,0,0,1,.413.22v1.179h-2.657Zm.268,6.8a.268.268,0,0,1-.268,0l-2.456-1.65h2.866v1.409a.268.268,0,0,1-.142.236Z" transform="translate(-586.274 -252.037)"/></g></svg>
