<svg xmlns="http://www.w3.org/2000/svg" height="24" viewBox="0 -960 960 960" width="24"><path d="M479.23-140q-120.61 0-212.81-73.81Q174.23-287.62 148.31-402q-3.23-11.92 4.27-21.92 7.5-10 20.27-11.62 12.15-1.61 21.88 4.85 9.73 6.46 13.58 19Q231.15-319 306.73-259.5t172.5 59.5q117 0 198.5-81.5t81.5-198.5q0-117-81.5-198.5T479.23-760q-65.54 0-122.84 29.12-57.31 29.11-98.7 80.11h74.62q12.77 0 21.38 8.62 8.62 8.61 8.62 21.38t-8.62 21.38q-8.61 8.62-21.38 8.62H195.39q-15.46 0-25.81-10.35-10.35-10.34-10.35-25.81v-136.92q0-12.77 8.62-21.38 8.61-8.62 21.38-8.62t21.39 8.62q8.61 8.61 8.61 21.38v64.77q48.69-57.46 116.62-89.19Q403.77-820 479.23-820q70.77 0 132.62 26.77 61.84 26.77 107.84 72.77t72.77 107.85q26.77 61.84 26.77 132.61 0 70.77-26.77 132.61-26.77 61.85-72.77 107.85-46 46-107.84 72.77Q550-140 479.23-140Zm0-280q-24.54 0-42.27-17.73-17.73-17.73-17.73-42.27 0-24.54 17.73-42.27Q454.69-540 479.23-540q24.54 0 42.27 17.73 17.73 17.73 17.73 42.27 0 24.54-17.73 42.27Q503.77-420 479.23-420Z"/></svg>