<svg xmlns="http://www.w3.org/2000/svg" width="12.571" height="16" viewBox="0 0 12.571 16">
  <g id="noun-missed-3555066" transform="translate(-28 38) rotate(-90)">
    <g id="Group_82" data-name="Group 82" transform="translate(23.143 28)">
      <path id="Path_289" data-name="Path 289" d="M37.121,36.836a2.506,2.506,0,0,1-1.783-.74L31.17,31.93l1.617-1.617,4.166,4.169a.243.243,0,0,0,.334,0L42.6,29.17l1.617,1.617L38.9,36.1A2.506,2.506,0,0,1,37.121,36.836Z" transform="translate(-29.693 -28.836)"/>
      <path id="Path_290" data-name="Path 290" d="M28.286,34.857H26V29.143A1.143,1.143,0,0,1,27.143,28h5.714v2.286H28.286Z" transform="translate(-26 -28)"/>
    </g>
    <rect id="Rectangle_149" data-name="Rectangle 149" width="16" height="2.286" transform="translate(22 38.286)"/>
  </g>
</svg>
