<?xml version="1.0" encoding="utf-8"?>
<!-- Generator: Adobe Illustrator 24.3.0, SVG Export Plug-In . SVG Version: 6.00 Build 0)  -->
<svg version="1.1" id="Layer_1" xmlns="http://www.w3.org/2000/svg" xmlns:xlink="http://www.w3.org/1999/xlink" x="0px" y="0px"
	 viewBox="0 0 24 24" style="enable-background:new 0 0 24 24;" xml:space="preserve">
<g>
	<path d="M16.9,11.5c-2.8,0-5.1,2.3-5.1,5.1s2.3,5.1,5.1,5.1s5.1-2.3,5.1-5.1S19.7,11.5,16.9,11.5z M16.9,12.7
		c0.8,0,1.6,0.3,2.2,0.7l-5.6,5c-0.3-0.6-0.5-1.2-0.5-1.9C13.1,14.5,14.8,12.7,16.9,12.7z M16.9,20.5c-1,0-2-0.4-2.7-1.1l5.7-5.1
		c0.5,0.6,0.8,1.4,0.8,2.3C20.8,18.7,19.1,20.5,16.9,20.5z"/>
	<path d="M14.5,13.1l0.7-0.4c-1-0.7-2.1-1.2-3.3-1.4c1.9-0.6,3.2-2.3,3.2-4.4c0.1-2.6-2-4.6-4.5-4.6C8.1,2.3,6,4.4,6,7
		c0,2.1,1.4,3.8,3.2,4.4C5.1,12.1,2,16,2,20.7c0,0.4,0.3,0.7,0.7,0.7s0.7-0.3,0.7-0.7c0-4.5,3.3-8.2,7.4-8.2c1.3,0,2.5,0.4,3.6,1.1
		C14.4,13.3,14.5,13.1,14.5,13.1z M10.6,10.3c-1.9,0-3.4-1.5-3.4-3.3c0-1.9,1.5-3.4,3.4-3.4S14,5.1,14,7S12.5,10.3,10.6,10.3z"/>
</g>
</svg>
