<svg xmlns="http://www.w3.org/2000/svg" width="8.205" height="10.649" viewBox="0 0 8.205 10.649"><defs><style>.a{isolation:isolate;}.b{fill:#030504;}</style></defs><g class="a" transform="translate(-456.251 -437.592)"><path class="b" d="M459.715,448.241q-.854,0-1.7-.053a12.018,12.018,0,0,1-1.762-.247v-10.08a14.943,14.943,0,0,1,1.575-.2c.57-.045,1.1-.067,1.59-.067a10.824,10.824,0,0,1,1.822.142,4.284,4.284,0,0,1,1.432.488,2.539,2.539,0,0,1,.938.907,2.646,2.646,0,0,1,.338,1.388,2.2,2.2,0,0,1-1.2,1.964,2.45,2.45,0,0,1,1.349,1.02,2.927,2.927,0,0,1,.361,1.455,2.794,2.794,0,0,1-1.193,2.46A6.241,6.241,0,0,1,459.715,448.241Zm-1.184-6.45h1.139a3.174,3.174,0,0,0,1.545-.277.962.962,0,0,0,.465-.893.918.918,0,0,0-.479-.885,3.088,3.088,0,0,0-1.41-.255c-.2,0-.415,0-.645.008s-.435.018-.615.037Zm0,1.785v2.686c.17.019.354.035.555.045s.419.014.66.014a4.041,4.041,0,0,0,1.7-.3,1.112,1.112,0,0,0,.645-1.11,1.086,1.086,0,0,0-.541-1.027,3.161,3.161,0,0,0-1.544-.308Z"/></g></svg>