<?xml version="1.0" encoding="utf-8"?>
<!-- Generator: Adobe Illustrator 24.3.0, SVG Export Plug-In . SVG Version: 6.00 Build 0)  -->
<svg version="1.1" id="Layer_1" xmlns="http://www.w3.org/2000/svg" xmlns:xlink="http://www.w3.org/1999/xlink" x="0px" y="0px"
	 viewBox="0 0 24 24" style="enable-background:new 0 0 24 24;" xml:space="preserve">
<style type="text/css">
	.st0{fill:#030504;}
</style>
<g id="Bold" transform="translate(-456.251 -437.592)">
	<path id="Path_265" class="st0" d="M467,459.6c-1.1,0-2.1,0-3.2-0.1c-1.1-0.1-2.2-0.2-3.3-0.5v-18.9c1-0.2,2-0.3,3-0.4
		c1.1-0.1,2.1-0.1,3-0.1c1.1,0,2.3,0.1,3.4,0.3c0.9,0.1,1.9,0.5,2.7,0.9c0.7,0.4,1.3,1,1.8,1.7c0.4,0.8,0.7,1.7,0.6,2.6
		c0,1.6-0.9,3-2.3,3.7c1,0.3,1.9,1,2.5,1.9c0.5,0.8,0.7,1.8,0.7,2.7c0.1,1.8-0.7,3.6-2.2,4.6C471.7,459.2,469.4,459.7,467,459.6z
		 M464.8,447.5h2.1c1,0.1,2-0.1,2.9-0.5c0.6-0.3,0.9-1,0.9-1.7c0.1-0.7-0.3-1.3-0.9-1.7c-0.8-0.4-1.7-0.5-2.6-0.5
		c-0.4,0-0.8,0-1.2,0c-0.4,0-0.8,0-1.2,0.1L464.8,447.5z M464.8,450.8v5c0.3,0,0.7,0.1,1,0.1c0.4,0,0.8,0,1.2,0
		c1.1,0,2.2-0.1,3.2-0.6c0.8-0.4,1.3-1.2,1.2-2.1c0.1-0.8-0.3-1.5-1-1.9c-0.9-0.4-1.9-0.6-2.9-0.6L464.8,450.8z"/>
</g>
</svg>
