<svg xmlns="http://www.w3.org/2000/svg" width="24" height="24" viewBox="0 0 24 24">
  <g id="brush_black_24dp" opacity="1">
    <path id="Path_323" data-name="Path 323" d="M0,0H24V24H0Z" fill="none"/>
    <path id="Path_324" data-name="Path 324" d="M7,16a1,1,0,0,1,1,1,2.006,2.006,0,0,1-2,2,2.825,2.825,0,0,1-.5-.05A3.947,3.947,0,0,0,6,17a1,1,0,0,1,1-1M18.67,3a1.024,1.024,0,0,0-.71.29L9,12.25,11.75,15l8.96-8.96a1,1,0,0,0,0-1.41L19.37,3.29a.976.976,0,0,0-.7-.29ZM7,14a3,3,0,0,0-3,3,2.029,2.029,0,0,1-2,2,5.174,5.174,0,0,0,4,2,4,4,0,0,0,4-4A3,3,0,0,0,7,14Z"/>
  </g>
</svg>
