<svg xmlns="http://www.w3.org/2000/svg" width="15.273" height="13" viewBox="0 0 15.273 13"><defs><style>.a{font-size:4px;font-family:Ubuntu-Bold, Ubuntu;font-weight:700;}</style></defs><g transform="translate(-75 -186.5)"><path d="M413.044,263.591h9.273a.545.545,0,1,0,0-1.091h-9.273a.545.545,0,0,0,0,1.091Z" transform="translate(-332.59 -73.909)"/><path d="M422.317,562.5h-9.273a.545.545,0,1,0,0,1.091h9.273a.545.545,0,1,0,0-1.091Z" transform="translate(-332.59 -369.545)"/><path d="M422.317,862.5h-9.273a.545.545,0,1,0,0,1.091h9.273a.545.545,0,1,0,0-1.091Z" transform="translate(-332.59 -665.182)"/><text class="a" transform="translate(77 190.5)"><tspan x="-1.136" y="0">1</tspan></text><text class="a" transform="translate(77 194.5)"><tspan x="-1.136" y="0">2</tspan></text><text class="a" transform="translate(77 198.5)"><tspan x="-1.136" y="0">3</tspan></text></g></svg>