<svg xmlns="http://www.w3.org/2000/svg" width="15.273" height="12" viewBox="0 0 15.273 12"><g transform="translate(-75 -187.5)"><path d="M76.636,187.5a1.636,1.636,0,1,0,1.157.479A1.636,1.636,0,0,0,76.636,187.5Z"/><path d="M76.636,487.5a1.636,1.636,0,1,0,1.157.479A1.637,1.637,0,0,0,76.636,487.5Z" transform="translate(0 -295.636)"/><path d="M76.636,787.5a1.636,1.636,0,1,0,1.157.479A1.637,1.637,0,0,0,76.636,787.5Z" transform="translate(0 -591.273)"/><path d="M413.044,263.591h9.273a.545.545,0,1,0,0-1.091h-9.273a.545.545,0,0,0,0,1.091Z" transform="translate(-332.59 -73.909)"/><path d="M422.317,562.5h-9.273a.545.545,0,1,0,0,1.091h9.273a.545.545,0,1,0,0-1.091Z" transform="translate(-332.59 -369.545)"/><path d="M422.317,862.5h-9.273a.545.545,0,1,0,0,1.091h9.273a.545.545,0,1,0,0-1.091Z" transform="translate(-332.59 -665.182)"/></g></svg>