<svg xmlns="http://www.w3.org/2000/svg" height="24" viewBox="0 -960 960 960" width="24"><path d="M402.31-210q-12.75 0-21.38-8.63-8.62-8.63-8.62-21.38 0-12.76 8.62-21.37 8.63-8.62 21.38-8.62H790q12.75 0 21.37 8.63 8.63 8.63 8.63 21.38 0 12.76-8.63 21.37Q802.75-210 790-210H402.31Zm0-240q-12.75 0-21.38-8.63-8.62-8.63-8.62-21.38 0-12.76 8.62-21.37 8.63-8.62 21.38-8.62H790q12.75 0 21.37 8.63 8.63 8.63 8.63 21.38 0 12.76-8.63 21.37Q802.75-450 790-450H402.31Zm0-240q-12.75 0-21.38-8.63-8.62-8.63-8.62-21.38 0-12.76 8.62-21.37 8.63-8.62 21.38-8.62H790q12.75 0 21.37 8.63 8.63 8.63 8.63 21.38 0 12.76-8.63 21.37Q802.75-690 790-690H402.31ZM206.54-173.46q-27.45 0-46.99-19.55Q140-212.55 140-240q0-27.45 19.55-46.99 19.54-19.55 46.99-19.55 27.45 0 46.99 19.55 19.55 19.54 19.55 46.99 0 27.45-19.55 46.99-19.54 19.55-46.99 19.55Zm0-240q-27.45 0-46.99-19.46Q140-452.39 140-480t19.55-47.08q19.54-19.46 46.99-19.46 27.45 0 46.99 19.46 19.55 19.47 19.55 47.08t-19.55 47.08q-19.54 19.46-46.99 19.46Zm-47.08-259.46Q140-692.39 140-720t19.46-47.08q19.46-19.46 47.08-19.46 27.61 0 47.08 19.46 19.46 19.47 19.46 47.08t-19.46 47.08q-19.47 19.46-47.08 19.46-27.62 0-47.08-19.46Z"/></svg>