<?xml version="1.0" encoding="utf-8"?>
<!-- Generator: Adobe Illustrator 24.3.0, SVG Export Plug-In . SVG Version: 6.00 Build 0)  -->
<svg version="1.1" id="Layer_1" xmlns="http://www.w3.org/2000/svg" xmlns:xlink="http://www.w3.org/1999/xlink" x="0px" y="0px"
	 viewBox="0 0 24 24" style="enable-background:new 0 0 24 24;" xml:space="preserve">
<g>
	<path id="Path_247" d="M4,4.1c-1.2,0-2.1,1-2.1,2.1c0,1.2,1,2.1,2.1,2.1c1.2,0,2.1-1,2.1-2.1c0-0.6-0.2-1.1-0.6-1.5
		C5.1,4.4,4.6,4.1,4,4.1z"/>
	<path id="Path_248" d="M4,9.9c-1.2,0-2.1,1-2.1,2.1c0,1.2,1,2.1,2.1,2.1c1.2,0,2.1-1,2.1-2.1c0-0.6-0.2-1.1-0.6-1.5
		C5.1,10.1,4.6,9.9,4,9.9z"/>
	<path id="Path_249" d="M4,15.6c-1.2,0-2.1,1-2.1,2.1c0,1.2,1,2.1,2.1,2.1c1.2,0,2.1-1,2.1-2.1c0-0.6-0.2-1.1-0.6-1.5
		C5.1,15.8,4.6,15.6,4,15.6z"/>
	<g>
		<path d="M9,7.3h12.1c0.5,0,1-0.4,1-1s-0.4-1-1-1H9c-0.5,0-1,0.4-1,1S8.5,7.3,9,7.3z"/>
		<path d="M21.2,11H9c-0.5,0-1,0.4-1,1s0.4,1,1,1h12.1c0.5,0,1-0.4,1-1S21.7,11,21.2,11z"/>
		<path d="M21.2,16.8H9c-0.5,0-1,0.4-1,1c0,0.5,0.4,1,1,1h12.1c0.5,0,1-0.4,1-1C22.1,17.2,21.7,16.8,21.2,16.8z"/>
	</g>
</g>
</svg>
