<?xml version="1.0" encoding="utf-8"?>
<!-- Generator: Adobe Illustrator 24.3.0, SVG Export Plug-In . SVG Version: 6.00 Build 0)  -->
<svg version="1.1" id="Layer_1" xmlns="http://www.w3.org/2000/svg" xmlns:xlink="http://www.w3.org/1999/xlink" x="0px" y="0px"
	 viewBox="0 0 24 24" style="enable-background:new 0 0 24 24;" xml:space="preserve">
<style type="text/css">
	.st0{font-family:'Ubuntu-Bold';}
	.st1{font-size:5.8624px;}
</style>
<g>
	<g>
		<path d="M8.2,6.8H21c0.6,0,1-0.5,1-1s-0.5-1-1-1H8.2c-0.6,0-1,0.5-1,1S7.6,6.8,8.2,6.8z"/>
		<path d="M21,10.8H8.2c-0.6,0-1,0.5-1,1c0,0.6,0.5,1,1,1H21c0.6,0,1-0.5,1-1C22,11.2,21.5,10.8,21,10.8z"/>
		<path d="M21,16.8H8.2c-0.6,0-1,0.5-1,1c0,0.6,0.5,1,1,1H21c0.6,0,1-0.5,1-1C22,17.3,21.5,16.8,21,16.8z"/>
	</g>
	<text transform="matrix(1 0 0 1 2.0002 7.9709)" class="st0 st1">1</text>
	<text transform="matrix(1 0 0 1 2.0002 13.8333)" class="st0 st1">2</text>
	<text transform="matrix(1 0 0 1 2.0002 19.6956)" class="st0 st1">3</text>
</g>
</svg>
