<svg xmlns="http://www.w3.org/2000/svg" width="20" height="20" viewBox="0 0 20 20">
  <path id="check_circle_FILL0_wght400_GRAD0_opsz24" d="M88.6-865.4l7.05-7.05-1.4-1.4L88.6-868.2l-2.85-2.85-1.4,1.4ZM90-860a9.738,9.738,0,0,1-3.9-.787,10.1,10.1,0,0,1-3.175-2.138,10.1,10.1,0,0,1-2.138-3.175A9.738,9.738,0,0,1,80-870a9.738,9.738,0,0,1,.787-3.9,10.1,10.1,0,0,1,2.138-3.175,10.1,10.1,0,0,1,3.175-2.138A9.738,9.738,0,0,1,90-880a9.738,9.738,0,0,1,3.9.787,10.1,10.1,0,0,1,3.175,2.138,10.1,10.1,0,0,1,2.138,3.175A9.738,9.738,0,0,1,100-870a9.738,9.738,0,0,1-.787,3.9,10.1,10.1,0,0,1-2.138,3.175,10.1,10.1,0,0,1-3.175,2.138A9.738,9.738,0,0,1,90-860Zm0-2a7.721,7.721,0,0,0,5.675-2.325A7.721,7.721,0,0,0,98-870a7.721,7.721,0,0,0-2.325-5.675A7.721,7.721,0,0,0,90-878a7.721,7.721,0,0,0-5.675,2.325A7.721,7.721,0,0,0,82-870a7.721,7.721,0,0,0,2.325,5.675A7.721,7.721,0,0,0,90-862ZM90-870Z" transform="translate(-80 880)" fill="black"/>
</svg>
