<?xml version="1.0" encoding="utf-8"?>
<!-- Generator: Adobe Illustrator 24.3.0, SVG Export Plug-In . SVG Version: 6.00 Build 0)  -->
<svg version="1.1" id="Layer_1" xmlns="http://www.w3.org/2000/svg" xmlns:xlink="http://www.w3.org/1999/xlink" x="0px" y="0px"
	 viewBox="0 0 24 24" style="enable-background:new 0 0 24 24;" xml:space="preserve">
<path id="noun-connection-5025318" d="M18,6.3c1.2,0,2.2-1,2.2-2.1C20.1,3,19.2,2,18,2c-1.2,0-2.2,1-2.2,2.1c0,0.5,0.2,1.1,0.6,1.5
	l-3.3,3.8c-0.8-0.6-2-0.5-2.7,0.2L7.3,7.1c0.5-0.8,0.2-1.9-0.6-2.4C5.9,4.2,4.8,4.5,4.3,5.3C3.8,6.1,4,7.2,4.9,7.7
	C5.6,8.1,6.4,8,7,7.5l3.1,2.5c-0.5,0.8-0.4,1.9,0.3,2.6l-2.9,2.9c-1.1-0.7-2.5-0.4-3.2,0.7c-0.7,1.1-0.4,2.5,0.7,3.2
	c1.1,0.7,2.5,0.4,3.2-0.7c0.6-0.9,0.5-2.1-0.3-2.9l2.9-2.9c0.3,0.2,0.7,0.3,1.2,0.3c0,0,0.1,0,0.1,0l0.8,4.8
	c-1.1,0.3-1.7,1.4-1.4,2.5c0.3,1.1,1.4,1.7,2.5,1.4c1.1-0.3,1.7-1.4,1.4-2.5c-0.3-0.9-1-1.4-1.9-1.4c0,0-0.1,0-0.1,0l-0.8-4.8
	c0.4-0.1,0.7-0.3,0.9-0.6l3.6,2.7c-0.4,0.8-0.2,1.8,0.6,2.2c0.8,0.4,1.8,0.2,2.2-0.6c0.4-0.8,0.2-1.8-0.6-2.2
	c-0.6-0.4-1.4-0.3-1.9,0.2l-3.6-2.7c0.2-0.3,0.3-0.7,0.3-1.1c0-0.5-0.2-1.1-0.6-1.5l3.3-3.8C17.1,6.2,17.5,6.3,18,6.3L18,6.3z"/>
</svg>
