<?xml version="1.0" encoding="utf-8"?>
<!-- Generator: Adobe Illustrator 24.3.0, SVG Export Plug-In . SVG Version: 6.00 Build 0)  -->
<svg version="1.1" id="Layer_1" xmlns="http://www.w3.org/2000/svg" xmlns:xlink="http://www.w3.org/1999/xlink" x="0px" y="0px"
	 viewBox="0 0 24 24" style="enable-background:new 0 0 24 24;" xml:space="preserve">
<g id="noun-waiting-3611673" transform="translate(-13.64 -30.48)">
	<path id="Path_278" d="M25.9,34.5c0.5,0,0.8-0.4,0.8-0.8c0-0.5-0.4-0.8-0.8-0.8c-0.5,0-0.8,0.4-0.8,0.8c0,0.2,0.1,0.4,0.2,0.6
		C25.4,34.4,25.6,34.5,25.9,34.5z"/>
	<path id="Path_279" d="M32.7,36.9c0.4-0.4,0.4-1.1,0-1.5c-0.4-0.4-1.1-0.4-1.5,0c-0.4,0.4-0.4,1.1,0,1.5c0.2,0.2,0.5,0.3,0.8,0.3
		C32.2,37.2,32.5,37.1,32.7,36.9z"/>
	<path id="Path_280" d="M34.5,41c-0.7,0-1.2,0.5-1.2,1.2s0.5,1.2,1.2,1.2c0.7,0,1.2-0.5,1.2-1.2c0-0.3-0.1-0.6-0.3-0.8
		C35.1,41.1,34.8,41,34.5,41z"/>
	<path id="Path_281" d="M31.9,47c-0.7,0-1.3,0.6-1.3,1.3c0,0.7,0.6,1.3,1.3,1.3c0.7,0,1.3-0.6,1.3-1.3c0-0.3-0.1-0.7-0.4-0.9
		C32.6,47.1,32.3,47,31.9,47z"/>
	<path id="Path_282" d="M25.9,49.4c-0.8,0-1.4,0.6-1.4,1.4c0,0.8,0.6,1.4,1.4,1.4c0.8,0,1.4-0.6,1.4-1.4c0-0.4-0.1-0.7-0.4-1
		C26.6,49.5,26.2,49.4,25.9,49.4z"/>
	<path id="Path_283" d="M18.7,47.2L18.7,47.2c-0.6,0.6-0.6,1.6,0,2.2c0.6,0.6,1.6,0.6,2.2,0c0.6-0.6,0.6-1.6,0-2.2
		c-0.3-0.3-0.7-0.5-1.1-0.5C19.4,46.7,19,46.9,18.7,47.2z"/>
	<path id="Path_284" d="M18.9,42.2c0-0.9-0.7-1.7-1.6-1.7s-1.7,0.7-1.7,1.6c0,0.9,0.7,1.7,1.6,1.7c0.4,0,0.9-0.2,1.2-0.5
		C18.8,43,18.9,42.6,18.9,42.2z"/>
	<path id="Path_285" d="M21.1,34.9c-0.7-0.3-1.5-0.1-1.9,0.6c-0.3,0.7-0.1,1.5,0.6,1.9c0.7,0.3,1.5,0.1,1.9-0.6
		c0.1-0.2,0.2-0.5,0.1-0.7C21.8,35.5,21.5,35.1,21.1,34.9z"/>
</g>
</svg>
