<svg xmlns="http://www.w3.org/2000/svg" height="24" viewBox="0 -960 960 960" width="24"><path d="M481.54-415.39 372.15-306q8.39 15 11.96 31.81 3.58 16.81 3.58 34.19 0 60.23-42.96 103.19T241.54-93.85q-60.23 0-103.19-42.96T95.39-240q0-60.23 42.96-103.19t103.19-42.96q17.38 0 34.19 3.57 16.81 3.58 31.81 11.97L416.92-480 307.54-589.39q-15 8.39-31.81 11.97-16.81 3.57-34.19 3.57-60.23 0-103.19-42.96T95.39-720q0-60.23 42.96-103.19t103.19-42.96q60.23 0 103.19 42.96T387.69-720q0 17.38-3.58 34.19Q380.54-669 372.15-654l447.23 447.23q22 22 9.89 49.77-12.12 27.77-42.81 27.77-9.07 0-17.46-3.54-8.38-3.54-14.85-10L481.54-415.39Zm110.77-110.76-64.62-64.62 226.46-226.46q6.47-6.46 14.85-10 8.39-3.54 17.46-3.54 30.69 0 42.5 28.08 11.81 28.07-10.19 50.07L592.31-526.15ZM302.46-659.08q25.23-25.23 25.23-60.92t-25.23-60.92q-25.23-25.23-60.92-25.23t-60.92 25.23q-25.24 25.23-25.24 60.92t25.24 60.92q25.23 25.23 60.92 25.23t60.92-25.23Zm186.15 186.16q2.93-2.93 2.93-7.08t-2.93-7.08q-2.92-2.92-7.07-2.92t-7.08 2.92q-2.92 2.93-2.92 7.08t2.92 7.08q2.93 2.92 7.08 2.92t7.07-2.92ZM302.46-179.08q25.23-25.23 25.23-60.92t-25.23-60.92q-25.23-25.23-60.92-25.23t-60.92 25.23q-25.24 25.23-25.24 60.92t25.24 60.92q25.23 25.23 60.92 25.23t60.92-25.23Z"/></svg>