<svg xmlns="http://www.w3.org/2000/svg" height="24" viewBox="0 -960 960 960" width="24"><path d="M480.77-533.85Zm-30 353.85H130q-12.75 0-21.37-8.63-8.63-8.63-8.63-21.38 0-12.76 8.63-21.37Q117.25-240 130-240h320.77q12.75 0 21.37 8.63 8.63 8.63 8.63 21.38 0 12.76-8.63 21.37-8.62 8.62-21.37 8.62ZM212.31-287.69q-30.31 0-51.31-21-21-21-21-51.31v-347.69Q140-738 161-759q21-21 51.31-21h574.61q12.75 0 21.38 8.63 8.62 8.63 8.62 21.38 0 12.76-8.62 21.37-8.63 8.62-21.38 8.62H212.31q-4.62 0-8.46 3.85-3.85 3.84-3.85 8.46V-360q0 4.62 3.85 8.46 3.84 3.85 8.46 3.85h238.46q12.75 0 21.37 8.63 8.63 8.63 8.63 21.38 0 12.76-8.63 21.37-8.62 8.62-21.37 8.62H212.31Zm591.54 41.15v-311.54q0-2.69-1.93-4.61-1.92-1.93-4.61-1.93H642.69q-2.69 0-4.61 1.93-1.93 1.92-1.93 4.61v311.54q0 2.69 1.93 4.62Q640-240 642.69-240h154.62q2.69 0 4.61-1.92 1.93-1.93 1.93-4.62ZM630.39-180q-22.6 0-38.42-15.82-15.81-15.82-15.81-38.41v-336.15q0-22.6 15.81-38.42 15.82-15.81 38.42-15.81h179.22q22.6 0 38.42 15.81 15.81 15.82 15.81 38.42v336.15q0 22.59-15.81 38.41Q832.21-180 809.61-180H630.39Zm89.54-280q12.3 0 20.42-8.52 8.11-8.51 8.11-19.87 0-12.3-8.11-20.42-8.11-8.11-20.51-8.11-11.46 0-19.88 8.11-8.42 8.11-8.42 20.51 0 11.45 8.52 19.88 8.51 8.42 19.87 8.42Zm.07 57.69Z"/></svg>