<svg xmlns="http://www.w3.org/2000/svg" height="24" viewBox="0 -960 960 960" width="24"><path d="M502.92-300.15q9.39-9.39 9.39-22.93T502.92-346q-9.38-9.38-22.92-9.38-13.54 0-22.92 9.38-9.39 9.38-9.39 22.92 0 13.54 9.39 22.93 9.38 9.38 22.92 9.38 13.54 0 22.92-9.38Zm-1.54-145.4q8.62-8.62 8.62-21.37v-180q0-12.75-8.63-21.38-8.63-8.62-21.38-8.62-12.76 0-21.37 8.62-8.62 8.63-8.62 21.38v180q0 12.75 8.63 21.37 8.63 8.63 21.38 8.63 12.76 0 21.37-8.63ZM480.07-100q-78.84 0-148.21-29.92t-120.68-81.21q-51.31-51.29-81.25-120.63Q100-401.1 100-479.93q0-78.84 29.92-148.21t81.21-120.68q51.29-51.31 120.63-81.25Q401.1-860 479.93-860q78.84 0 148.21 29.92t120.68 81.21q51.31 51.29 81.25 120.63Q860-558.9 860-480.07q0 78.84-29.92 148.21t-81.21 120.68q-51.29 51.31-120.63 81.25Q558.9-100 480.07-100Zm-.07-60q134 0 227-93t93-227q0-134-93-227t-227-93q-134 0-227 93t-93 227q0 134 93 227t227 93Zm0-320Z"/></svg>