<svg xmlns="http://www.w3.org/2000/svg" width="15.931" height="12.145" viewBox="0 0 15.931 12.145"><defs><style>.a{fill:#005699;}</style></defs><g transform="translate(-0.048 -0.096)"><path class="a" d="M7.933,7.537a7.081,7.081,0,0,1-3.7-1.292A12.409,12.409,0,0,1,1.359,3.528a.237.237,0,0,1,0-.366A14.122,14.122,0,0,1,3.788.79L3,0A14.6,14.6,0,0,0,.164,2.93.629.629,0,0,0,.183,3.8,13.62,13.62,0,0,0,4.405,7.634a7.4,7.4,0,0,0,3.547,1A7.067,7.067,0,0,0,10.9,7.923l-.848-.848A5.577,5.577,0,0,1,7.933,7.537Z" transform="translate(0.048 2.969)"/><path class="a" d="M10.487,4.843A13.154,13.154,0,0,0,6.227.987,7.284,7.284,0,0,0,2.892,0,6.436,6.436,0,0,0,0,.6l.848.848A5.691,5.691,0,0,1,2.641,1.1a5.788,5.788,0,0,1,2.583.617A11.437,11.437,0,0,1,8.81,4.5c.193.212.347.424.54.636a.209.209,0,0,1,.019.289A13.993,13.993,0,0,1,7.113,7.7l.79.79a14.6,14.6,0,0,0,2.6-2.737A.658.658,0,0,0,10.487,4.843Z" transform="translate(5.301 1.037)"/><path class="a" d="M2.506,2.6l1,1a3.349,3.349,0,0,0,.1-.752A2.867,2.867,0,0,0,.771,0,2.576,2.576,0,0,0,0,.116L1.022,1.137A1.738,1.738,0,0,1,2.506,2.6Z" transform="translate(7.229 3.47)"/><path class="a" d="M.193,0A2.6,2.6,0,0,0,0,1.022,2.867,2.867,0,0,0,2.853,3.855a3.005,3.005,0,0,0,1.022-.193l-.906-.906H2.834A1.749,1.749,0,0,1,1.1.983V.906Z" transform="translate(5.166 5.301)"/><path class="a" d="M.989.173A.514.514,0,0,0,.6,0,.659.659,0,0,0,.044.386.49.49,0,0,0,.179.964L11.186,11.971a.514.514,0,0,0,.386.173h0a.659.659,0,0,0,.559-.386A.49.49,0,0,0,12,11.181Z" transform="translate(1.941 0.096)"/></g></svg>