<svg xmlns="http://www.w3.org/2000/svg" width="11.525" height="20.393" viewBox="0 0 11.525 20.393"><defs><style>.a{fill:#005699;stroke:#005699;stroke-width:0.25px;}</style></defs><g transform="translate(-16.717 -4.786)"><path class="a" d="M28.117,18.515V15.471a2.227,2.227,0,0,0-1.544-2.119.2.2,0,0,0-.045,0l-3.8-.705L22.4,8.935a1.485,1.485,0,0,0-2.969,0v4.476L18.3,14.7a2.6,2.6,0,0,0-.65,1.718v1.9a2.6,2.6,0,0,0,.49,1.518l1.258,1.752h-.126a.371.371,0,0,0-.371.371v2.721a.371.371,0,0,0,.371.371h8.477a.371.371,0,0,0,.371-.371V21.963a.371.371,0,0,0-.371-.371h-.074l.193-.839A10.07,10.07,0,0,0,28.117,18.515Zm-.742,5.8H19.647V22.334h7.727Zm-7.052-2.721-1.57-2.186a1.856,1.856,0,0,1-.349-1.084v-1.9a1.856,1.856,0,0,1,.464-1.229l.583-.661v2.309a.371.371,0,0,0,.742,0V8.924a.744.744,0,1,1,1.488.03l.349,4.027v.026a.223.223,0,0,0,.022.071.322.322,0,0,0,.026.063.326.326,0,0,0,.045.056.215.215,0,0,0,.052.048l.056.033.074.03h.022l4.053.742a1.485,1.485,0,0,1,.995,1.422v3.043a9.231,9.231,0,0,1-.234,2.071l-.23,1.006ZM17.84,11.117a.371.371,0,0,1-.319-.182,3.89,3.89,0,1,1,6.74-.1.374.374,0,0,1-.65-.371,3.147,3.147,0,1,0-5.452.085.371.371,0,0,1-.13.508.393.393,0,0,1-.189.059Z"/></g></svg>