<svg xmlns="http://www.w3.org/2000/svg" width="21.27" height="26.25" viewBox="0 0 21.27 26.25"><defs><style>.a{fill:#005699;stroke:#005699;stroke-width:0.25px;}</style></defs><g transform="translate(-7.982 -4.127)"><path class="a" d="M21.25,30.252H15.984a2.468,2.468,0,0,1-2.468-2.468V25.809a4.068,4.068,0,0,0-1.481-3.179,10.368,10.368,0,1,1,13.165,0,4,4,0,0,0-1.481,3.179v1.975A2.468,2.468,0,0,1,21.25,30.252ZM14.5,26.3v1.481a1.481,1.481,0,0,0,1.481,1.481H21.25a1.481,1.481,0,0,0,1.481-1.481V26.3Zm0-.987h8.248a4.976,4.976,0,0,1,1.79-3.456A9.328,9.328,0,0,0,27.984,14.2a9.358,9.358,0,1,0-15.291,7.656,5.036,5.036,0,0,1,1.79,3.456Z" transform="translate(0)"/></g></svg>