<?xml version="1.0" encoding="utf-8"?>
<!-- Generator: Adobe Illustrator 24.3.0, SVG Export Plug-In . SVG Version: 6.00 Build 0)  -->
<svg version="1.1" id="Layer_1" xmlns="http://www.w3.org/2000/svg" xmlns:xlink="http://www.w3.org/1999/xlink" x="0px" y="0px"
	 viewBox="0 0 24 24" style="enable-background:new 0 0 24 24;" xml:space="preserve">
<g>
	<path d="M15.5,9l0-1c0-0.6-0.7-1.2-1.5-1c-0.1,0,0,0-0.2,0.1c0-0.3-0.1-0.6-0.3-0.8s-0.4-0.4-0.9-0.4c-0.4,0-0.9,0.3-1.1,0.7
		C11,6.4,10.4,6.5,10.1,7C10,7.1,10,7.3,10,7.5v6.1L9.4,13c-0.5-0.5-1.2-0.7-1.9-0.4c-0.2,0-0.4,0.2-0.5,0.4s-0.2,0.4-0.1,0.6
		c0.1,0.2,0,0.1,0.1,0.2l1.6,2.4c0.3,0.4,0.5,0.7,0.8,1.1c0.3,0.3,0.7,0.6,1.2,0.8h0.1l0.1-0.1v-0.5c0-0.1,0-0.1-0.1-0.1
		c-0.3-0.1-0.6-0.3-0.8-0.5c-0.3-0.3-0.5-0.6-0.8-1l-1.6-2.4v-0.1c0,0,0-0.1,0.1-0.1c0.4-0.1,0.8,0,1.1,0.3l0.8,0.8
		c0.3,0.3,0.7,0.3,1,0c0.1-0.1,0.2-0.3,0.2-0.5V7.5c0-0.2,0.2-0.4,0.4-0.4c0.2,0,0.4,0.2,0.4,0.4v3.9c0,0.2,0.2,0.4,0.4,0.4
		c0.2,0,0.4-0.2,0.4-0.4V7c0-0.2,0.2-0.4,0.4-0.4s0.4,0.2,0.4,0.4v4.6c0,0.2,0.2,0.4,0.4,0.4s0.4-0.2,0.4-0.4V8.1
		c0-0.2,0.2-0.4,0.4-0.4s0.4,0.2,0.4,0.4v4.1c0,0.2,0.2,0.4,0.4,0.4c0.2,0,0.4-0.2,0.4-0.4V9.9c0-0.2,0.2-0.4,0.4-0.4
		c0.2,0,0.4,0.2,0.4,0.4v5c0,0.3-0.1,0.6-0.2,0.9c-0.2,0.5-0.6,0.9-1,1.2L15,17.1v0.6c0,0,0,0.1,0.1,0.1h0.1c0.7-0.4,1.3-1,1.6-1.8
		c0.1-0.4,0.2-0.8,0.2-1.1v-5C17,9.4,16.5,8.7,15.5,9z"/>
	<g>
		<path d="M4.6,14.2c-0.2,0-0.4-0.2-0.4-0.4c0-0.1,0-1.3,0.9-2.1c0.2-0.1,0.4-0.1,0.6,0c0.1,0.2,0.1,0.4,0,0.6C5,12.9,5,13.8,5,13.8
			C5,14,4.9,14.2,4.6,14.2L4.6,14.2z"/>
	</g>
	<g>
		<path d="M2.4,14.9c-0.2,0-0.4-0.2-0.4-0.4c0-0.1,0-2.9,2.1-4.8c0.2-0.1,0.4-0.1,0.6,0c0.1,0.2,0.1,0.4,0,0.6
			c-1.9,1.7-1.8,4.2-1.8,4.2C2.8,14.7,2.6,14.9,2.4,14.9L2.4,14.9z"/>
	</g>
	<g>
		<path d="M19.4,10.7L19.4,10.7c-0.2,0-0.4-0.2-0.4-0.4c0-0.9-0.6-1.5-0.6-1.6c-0.2-0.2-0.2-0.4,0-0.6C18.6,8,18.8,8,19,8.2
			c0,0,0.9,0.9,0.9,2.2C19.8,10.5,19.6,10.7,19.4,10.7z"/>
	</g>
	<g>
		<path d="M21.6,11.4L21.6,11.4c-0.2,0-0.4-0.2-0.4-0.4c0.1-2.5-1.7-4.3-1.7-4.3c-0.2-0.2-0.2-0.4,0-0.6s0.4-0.2,0.6,0
			c0.1,0.1,2.1,2.1,1.9,4.9C22,11.2,21.8,11.4,21.6,11.4z"/>
	</g>
</g>
</svg>
