<?xml version="1.0" encoding="utf-8"?>
<!-- Generator: Adobe Illustrator 24.3.0, SVG Export Plug-In . SVG Version: 6.00 Build 0)  -->
<svg version="1.1" id="Layer_1" xmlns="http://www.w3.org/2000/svg" xmlns:xlink="http://www.w3.org/1999/xlink" x="0px" y="0px"
	 viewBox="0 0 24 24" style="enable-background:new 0 0 24 24;" xml:space="preserve">
<path d="M18.3,2H5.8C3.7,2,2,3.7,2,5.8v12.4C2,20.3,3.7,22,5.8,22h12.4c2.1,0,3.8-1.7,3.8-3.7V5.8C22,3.7,20.3,2,18.3,2z M3.5,5.7
	c0-1.2,1-2.2,2.3-2.2h5.5V11H3.5V5.7z M11.3,12.5L11.3,12.5L11.3,12.5L11.3,12.5z M3.5,12.5h6.7l-6.6,6.6c-0.1-0.3-0.2-0.6-0.2-0.9
	V12.5z M5.8,20.5c-0.4,0-0.8-0.1-1.1-0.3l6.6-6.6v6.9H5.8z M20.6,18.2c0,1.3-1,2.3-2.3,2.3h-5.5v-8h7.8V18.2z M20.6,11h-7.8V3.5h5.5
	c1.3,0,2.3,1,2.3,2.3V11z"/>
</svg>
