<?xml version="1.0" encoding="utf-8"?>
<!-- Generator: Adobe Illustrator 24.3.0, SVG Export Plug-In . SVG Version: 6.00 Build 0)  -->
<svg version="1.1" id="Layer_1" xmlns="http://www.w3.org/2000/svg" xmlns:xlink="http://www.w3.org/1999/xlink" x="0px" y="0px"
	 viewBox="0 0 24 24" style="enable-background:new 0 0 24 24;" xml:space="preserve">
<g id="noun-about-3359358" transform="translate(-188.36 -188.36)">
	<path id="Path_15" d="M200.4,197.7c-0.5,0-0.9,0.4-0.9,0.9l0,0v7.7c0,0.5,0.4,0.9,0.9,0.9s0.9-0.4,0.9-0.9l0,0v-7.7
		C201.3,198.1,200.9,197.7,200.4,197.7L200.4,197.7z"/>
	<path id="Path_16" d="M201.3,195.3c0,0.5-0.4,0.9-0.9,0.9s-0.9-0.4-0.9-0.9s0.4-0.9,0.9-0.9l0,0
		C200.9,194.4,201.3,194.8,201.3,195.3"/>
</g>
</svg>
