<?xml version="1.0" encoding="utf-8"?>
<!-- Generator: Adobe Illustrator 28.0.0, SVG Export Plug-In . SVG Version: 6.00 Build 0)  -->
<svg version="1.1" id="Layer_1" xmlns="http://www.w3.org/2000/svg" xmlns:xlink="http://www.w3.org/1999/xlink" x="0px" y="0px"
	 viewBox="0 0 43 52.7" style="enable-background:new 0 0 43 52.7;" xml:space="preserve">
<style type="text/css">
	.st0{fill:#9EB3C3;}
	.st1{opacity:0.3;fill:#FF0045;enable-background:new    ;}
	.st2{opacity:0.16;fill:#FF0045;enable-background:new    ;}
	.st3{fill:#FF0045;}
</style>
<g id="Icon_Donate" transform="translate(-22 -189.345)">
	<path id="Rectangle_267" class="st0" d="M27,232h33c2.8,0,5,2.2,5,5l0,0c0,2.8-2.2,5-5,5H27c-2.8,0-5-2.2-5-5l0,0
		C22,234.2,24.2,232,27,232z"/>
	<path id="Path_459" class="st1" d="M32.1,216.9l-1.1-1c-4-3.6-6.6-5.9-6.6-8.8c0-2.3,1.8-4.2,4.1-4.2c0,0,0.1,0,0.1,0
		c1.3,0,2.6,0.6,3.5,1.6c0.9-1,2.1-1.6,3.5-1.6c2.3,0,4.2,1.8,4.2,4.1c0,0,0,0.1,0,0.1c0,2.9-2.6,5.3-6.6,8.9L32.1,216.9z"/>
	<path id="Path_460" class="st2" d="M52.5,198.4l-0.7-0.7c-2.6-2.3-4.2-3.8-4.2-5.7c0-1.5,1.2-2.7,2.7-2.7c0,0,0,0,0,0
		c0.9,0,1.7,0.4,2.2,1c0.6-0.7,1.4-1,2.2-1c1.5,0,2.7,1.2,2.7,2.7c0,0,0,0,0,0c0,1.9-1.7,3.4-4.2,5.7L52.5,198.4z"/>
	<path class="st3" d="M37.3,236.7h11.4c3.1-3,4.9-5.5,4.9-8.4c0,0,0-0.1,0-0.1c0-3.2-2.7-5.8-5.9-5.7c-1.8,0-3.6,0.8-4.8,2.2
		c-1.2-1.4-2.9-2.2-4.8-2.2c0,0-0.1,0-0.1,0c-3.2,0-5.8,2.7-5.7,5.9C32.4,231.2,34.3,233.7,37.3,236.7z"/>
</g>
</svg>
