<svg xmlns="http://www.w3.org/2000/svg" xmlns:xlink="http://www.w3.org/1999/xlink" width="43" height="52.655" viewBox="0 0 43 52.655">
  <defs>
    <clipPath id="clip-path">
      <rect id="Rectangle_268" data-name="Rectangle 268" width="38" height="24" transform="translate(-0.407 0.083)" fill="#fff" stroke="#707070" stroke-width="1"/>
    </clipPath>
  </defs>
  <g id="Icon_Donate" transform="translate(-22 -189.345)">
    <rect id="Rectangle_267" data-name="Rectangle 267" width="43" height="10" rx="5" transform="translate(22 232)" fill="#9eb3c3"/>
    <path id="Path_459" data-name="Path 459" d="M9.674,17.083,8.562,16.07C4.609,12.486,2,10.122,2,7.221A4.18,4.18,0,0,1,6.221,3,4.6,4.6,0,0,1,9.674,4.6,4.6,4.6,0,0,1,13.128,3a4.18,4.18,0,0,1,4.221,4.221c0,2.9-2.609,5.265-6.562,8.856Z" transform="translate(22.407 199.828)" fill="#ff0045" opacity="0.3"/>
    <path id="Path_460" data-name="Path 460" d="M6.953,12.088l-.718-.654C3.684,9.122,2,7.6,2,5.724A2.7,2.7,0,0,1,4.724,3,2.966,2.966,0,0,1,6.953,4.035,2.966,2.966,0,0,1,9.182,3a2.7,2.7,0,0,1,2.724,2.724c0,1.872-1.684,3.4-4.235,5.716Z" transform="translate(45.571 186.345)" fill="#ff0045" opacity="0.16"/>
    <g id="Mask_Group_38" data-name="Mask Group 38" transform="translate(24.407 213.918)" clip-path="url(#clip-path)">
      <path id="Path_270" data-name="Path 270" d="M12.649,22.542l-1.544-1.406C5.621,16.163,2,12.883,2,8.857A5.8,5.8,0,0,1,7.857,3a6.377,6.377,0,0,1,4.792,2.226A6.377,6.377,0,0,1,17.442,3,5.8,5.8,0,0,1,23.3,8.857c0,4.025-3.621,7.306-9.105,12.289Z" transform="translate(5.992 5.54)" fill="#ff0045"/>
    </g>
  </g>
</svg>
