<?xml version="1.0" encoding="utf-8"?>
<!-- Generator: Adobe Illustrator 24.3.0, SVG Export Plug-In . SVG Version: 6.00 Build 0)  -->
<svg version="1.1" id="Layer_1" xmlns="http://www.w3.org/2000/svg" xmlns:xlink="http://www.w3.org/1999/xlink" x="0px" y="0px"
	 viewBox="0 0 24 24" style="enable-background:new 0 0 24 24;" xml:space="preserve">
<g id="noun-about-3359358" transform="translate(-188.36 -188.36)">
	<path id="Path_14" d="M200.4,190.4c-5.5,0-10,4.5-10,10s4.5,10,10,10s10-4.5,10-10C210.4,194.8,205.9,190.4,200.4,190.4z
		 M200.4,208.5c-4.5,0-8.2-3.7-8.2-8.2s3.7-8.2,8.2-8.2c4.5,0,8.2,3.7,8.2,8.2C208.5,204.9,204.9,208.5,200.4,208.5L200.4,208.5z"/>
	<path id="Path_15" d="M200.4,197.7c-0.5,0-0.9,0.4-0.9,0.9c0,0,0,0,0,0v7.7c0,0.5,0.4,0.9,0.9,0.9s0.9-0.4,0.9-0.9l0,0v-7.7
		C201.3,198.1,200.9,197.7,200.4,197.7C200.4,197.7,200.4,197.7,200.4,197.7z"/>
	<path id="Path_16" d="M201.3,195.3c0,0.5-0.4,0.9-0.9,0.9c-0.5,0-0.9-0.4-0.9-0.9c0-0.5,0.4-0.9,0.9-0.9l0,0
		C200.9,194.4,201.3,194.8,201.3,195.3"/>
</g>
</svg>
