<svg xmlns="http://www.w3.org/2000/svg" width="30" height="24" viewBox="0 0 30 24"><defs><style>.a{fill:#005699;}.b,.d{fill:none;}.b{stroke:#005699;stroke-width:1.5px;}.c{stroke:none;}</style></defs><g transform="translate(7.328 6.159)"><g transform="translate(0 0)"><path class="a" d="M-2124.191-3452.351h.007a1.335,1.335,0,0,0,.972-.341,1.106,1.106,0,0,0,.351-.847.958.958,0,0,0-.34-.76,1.407,1.407,0,0,0-.983-.337h-.012a1.365,1.365,0,0,0-.977.342,1.1,1.1,0,0,0-.053,1.549l.055.056a1.364,1.364,0,0,0,.973.341Z" transform="translate(2125.521 3454.638)"/></g><g transform="translate(0.358 0.062)"><path class="a" d="M-2123.846-3442.183h9.042a8,8,0,0,0,3.567-.767,5.651,5.651,0,0,0,2.353-2.118,6.555,6.555,0,0,0,0-6.4,5.651,5.651,0,0,0-2.351-2.114,7.975,7.975,0,0,0-3.562-.766h-3.427v8.653h2.057v-7.142h1.216a4.586,4.586,0,0,1,4.953,4.187,4.586,4.586,0,0,1-4.187,4.954,4.585,4.585,0,0,1-.772,0h-6.942v-6.035h-1.946v6.035h0Z" transform="translate(2123.846 3454.35)"/></g></g><g class="b"><path class="c" d="M5,0H25a5,5,0,0,1,5,5V24a0,0,0,0,1,0,0H5a5,5,0,0,1-5-5V5A5,5,0,0,1,5,0Z"/><path class="d" d="M5,.75H25A4.25,4.25,0,0,1,29.25,5V22.5a.75.75,0,0,1-.75.75H5A4.25,4.25,0,0,1,.75,19V5A4.25,4.25,0,0,1,5,.75Z"/></g></svg>