<svg xmlns="http://www.w3.org/2000/svg" height="24" viewBox="0 -960 960 960" width="24"><path d="M234.27-434.27q-18.88-18.88-18.88-45.73 0-26.85 18.88-45.73 18.88-18.88 45.73-18.88 26.85 0 45.73 18.88 18.88 18.88 18.88 45.73 0 26.85-18.88 45.73-18.88 18.88-45.73 18.88-26.85 0-45.73-18.88ZM280-260q-91.54 0-155.77-64.23T60-480q0-91.54 64.23-155.77T280-700q64.31 0 116.31 33.19 52 33.2 79.38 86.81h345q7.23 0 13.77 2.62 6.54 2.61 12.15 8.23l63.85 63.84q5.62 5.62 7.92 11.85 2.31 6.23 2.31 13.46t-2.31 13.46q-2.3 6.23-7.92 11.85L804.62-349.23q-4.62 4.61-10.85 7.42-6.23 2.81-12.46 3.42-6.23.62-12.46-1.19T757-345.62l-49.31-37.07-55.84 41.46q-4.62 3.61-9.85 5.23-5.23 1.61-10.85 1.61-5.61 0-11.15-1.8-5.54-1.81-10.15-5.04L553.46-380h-77.77q-27.38 53.23-79.38 86.61Q344.31-260 280-260Zm0-60q57.54 0 99.65-34.77 42.12-34.77 54.97-85.23h137.69l57.61 39.85q-.38 0-.19.3.19.31.19-.3l78.16-57.16L776-405.38v-.2.2L850.62-480h-.31.31l-40-40v-.31.31h-376q-12.85-50.46-54.97-85.23Q337.54-640 280-640q-66 0-113 47t-47 113q0 66 47 113t113 47Z"/></svg>