<?xml version="1.0" encoding="utf-8"?>
<!-- Generator: Adobe Illustrator 24.3.0, SVG Export Plug-In . SVG Version: 6.00 Build 0)  -->
<svg version="1.1" id="Layer_1" xmlns="http://www.w3.org/2000/svg" xmlns:xlink="http://www.w3.org/1999/xlink" x="0px" y="0px"
	 viewBox="0 0 24 24" style="enable-background:new 0 0 24 24;" xml:space="preserve">
<g id="noun-key-2387257" transform="translate(0.043 -0.005)">
	<path id="Path_306" d="M21.2,17.8v-1.2c0-0.4-0.3-0.8-0.8-0.8h-0.8v-0.8c0-0.4-0.3-0.8-0.8-0.8c0,0,0,0,0,0h-0.8v-0.8
		c0-0.2-0.1-0.4-0.2-0.5l-3.7-3.7c0.1-0.4,0.1-0.7,0.1-1.1c0-3.4-2.8-6.2-6.2-6.2S2,4.8,2,8.2s2.8,6.2,6.2,6.2c0,0,0,0,0,0
		c0.8,0,1.6-0.2,2.3-0.5l7.9,7.9c0.1,0.1,0.3,0.2,0.5,0.2h2.3c0.4,0,0.8-0.3,0.8-0.8v-2.3c0-0.2-0.1-0.4-0.2-0.5L21.2,17.8z
		 M20.4,20.5h-1.2l-8.1-8.1c-0.2-0.2-0.6-0.3-0.9-0.1c-2.3,1.2-5.1,0.3-6.3-2S3.6,5.2,5.9,4s5.1-0.3,6.3,2c0.5,1,0.7,2.2,0.4,3.3
		c-0.1,0.3,0,0.5,0.2,0.7l3.8,3.8v1.2c0,0.4,0.3,0.8,0.8,0.8h0.8v0.8c0,0.4,0.3,0.8,0.8,0.8h0.8v0.8c0,0.2,0.1,0.4,0.2,0.5l0.5,0.5
		L20.4,20.5z"/>
	<path id="Path_307" d="M8.1,6.6c0,0.8-0.7,1.5-1.5,1.5C5.7,8.2,5,7.5,5,6.6c0-0.8,0.7-1.5,1.5-1.5c0,0,0,0,0,0
		C7.4,5.1,8.1,5.8,8.1,6.6"/>
</g>
</svg>
