<?xml version="1.0" encoding="utf-8"?>
<!-- Generator: Adobe Illustrator 24.3.0, SVG Export Plug-In . SVG Version: 6.00 Build 0)  -->
<svg version="1.1" id="Layer_1" xmlns="http://www.w3.org/2000/svg" xmlns:xlink="http://www.w3.org/1999/xlink" x="0px" y="0px"
	 viewBox="0 0 24 24" style="enable-background:new 0 0 24 24;" xml:space="preserve">
<g id="noun-leave-1828977" transform="translate(0.002 -51.17)">
	<path id="Path_298" d="M14.3,66.7c-0.5,0-0.8,0.4-0.8,0.8v3.9H2.8V54.9h10.7v3.9c0,0.5,0.4,0.8,0.8,0.8s0.8-0.4,0.8-0.8l0,0V54
		c0-0.5-0.4-0.8-0.8-0.8H1.9c-0.5,0-0.8,0.4-0.8,0.8v18.3c0,0.5,0.4,0.8,0.8,0.8h12.4c0.5,0,0.8-0.4,0.8-0.8v-4.7
		C15.2,67.1,14.8,66.7,14.3,66.7C14.4,66.7,14.4,66.7,14.3,66.7L14.3,66.7z"/>
	<path id="Path_299" d="M22.9,63.6v-0.4c0-0.1-0.1-0.1-0.1-0.1l-0.1-0.1V63l-4.6-4.6c-0.3-0.3-0.9-0.3-1.2,0c-0.3,0.3-0.3,0.8,0,1.2
		l3.1,3.2h-12c-0.5,0-0.8,0.4-0.8,0.8s0.4,0.8,0.8,0.8H20L17,67.6c-0.3,0.3-0.3,0.8,0,1.2c0,0,0,0,0,0c0.2,0.1,0.4,0.2,0.6,0.2
		c0.2,0,0.5-0.1,0.6-0.3l4.5-4.6c0,0,0-0.1,0.1-0.1c0,0,0,0,0,0V64c0.1-0.1,0.1-0.1,0.1-0.2v-0.1C22.8,63.7,22.9,63.7,22.9,63.6
		L22.9,63.6z"/>
</g>
</svg>
