<?xml version="1.0" encoding="utf-8"?>
<!-- Generator: Adobe Illustrator 24.3.0, SVG Export Plug-In . SVG Version: 6.00 Build 0)  -->
<svg version="1.1" id="Layer_1" xmlns="http://www.w3.org/2000/svg" xmlns:xlink="http://www.w3.org/1999/xlink" x="0px" y="0px"
	 viewBox="0 0 24 24" style="enable-background:new 0 0 24 24;" xml:space="preserve">
<g id="Link">
	<path d="M10.9,8.7c-1.2,0-2.3,0.5-3.1,1.3l-4.6,4.6C2.5,15.4,2,16.5,2,17.6c0,1.2,0.5,2.3,1.3,3.1S5.2,22,6.3,22s2.3-0.5,3.1-1.3
		l3.3-3.3c-0.7,0-1.3-0.2-1.9-0.4l-2.6,2.6c-1.1,1.1-2.8,1.1-3.8,0l-0.1-0.1l0,0c-0.4-0.5-0.7-1.1-0.7-1.8c0-0.7,0.3-1.4,0.8-1.9
		l0,0L9,11.1c1-1,2.8-1,3.8,0c0.3,0.3,0.9,0.3,1.2,0c0.2-0.2,0.2-0.4,0.2-0.6S14.2,10.1,14,10C13.2,9.2,12.1,8.7,10.9,8.7z
		 M10.6,12.6c-0.2,0-0.4,0.1-0.6,0.2c-0.3,0.3-0.3,0.9,0,1.2c1.7,1.7,4.5,1.7,6.1,0l4.6-4.6C21.5,8.6,22,7.5,22,6.4
		s-0.5-2.3-1.3-3.1c-1.7-1.7-4.5-1.7-6.1,0l-3.3,3.3c0.7,0,1.3,0.2,1.9,0.4l2.6-2.6c0.5-0.5,1.2-0.8,1.9-0.8c0.7,0,1.4,0.3,1.9,0.8
		c0.5,0.5,0.8,1.2,0.8,1.9s-0.3,1.4-0.8,1.9L15,12.9c-1,1-2.8,1.1-3.8,0C11,12.7,10.8,12.6,10.6,12.6z"/>
</g>
</svg>
