<svg xmlns="http://www.w3.org/2000/svg" width="12" height="12" viewBox="0 0 12 12"><defs><style>.a{fill-rule:evenodd;}</style></defs><path class="a" d="M66.7,63.286l1.6-1.6a1.426,1.426,0,1,1,2.017,2.017l-2.69,2.69a1.426,1.426,0,0,1-2.015,0l0,0a.634.634,0,0,0-.9.9h0a2.694,2.694,0,0,0,3.81,0l2.69-2.69a2.694,2.694,0,0,0-3.81-3.81l-2.216,2.216a3.175,3.175,0,0,1,1.514.279Zm-5.014,7.031a1.426,1.426,0,0,1,0-2.017l2.69-2.69a1.426,1.426,0,0,1,2.015,0l0,0a.634.634,0,0,0,.9-.9h0a2.694,2.694,0,0,0-3.81,0l-1.345,1.345L60.789,67.4a2.694,2.694,0,0,0,3.81,3.81L66.815,69a3.175,3.175,0,0,1-1.514-.279l-1.6,1.6a1.426,1.426,0,0,1-2.017,0Z" transform="translate(-60 -60.002)"/></svg>