<?xml version="1.0" encoding="utf-8"?>
<!-- Generator: Adobe Illustrator 24.3.0, SVG Export Plug-In . SVG Version: 6.00 Build 0)  -->
<svg version="1.1" xmlns="http://www.w3.org/2000/svg" xmlns:xlink="http://www.w3.org/1999/xlink" x="0px" y="0px"
	 viewBox="0 0 600 600" style="enable-background:new 0 0 600 600;" xml:space="preserve">
<style type="text/css">
	.st0{fill:#005699;}
</style>
<g id="Layer_1">
</g>
<g id="Layer_2">
	<g id="noun-pin-106435">
		<path class="st0" d="M299.8,549.9l-14.2-12.8c-3.8-3.4-93.5-84.6-121.3-113.6c-45.2-41-72.6-98.6-75.9-161
			c0-117.7,94.8-212.6,211.4-212.6l0,0c116.5,0,211.4,94.8,211.4,211.4c0,59.2-28.6,116.6-87.4,175.4c-9.1,9-99.6,91.1-109.9,100.4
			L299.8,549.9z M299.8,92.1c-93.3,0-169.2,75.9-169.2,169.2c2.7,50.1,25.1,97.3,63.1,131.9c21.2,22,79.1,75.1,106.1,99.7
			c39.1-35.5,88.6-80.5,94.2-86.1c50.4-50.4,75-98,75-145.5C469,168.1,393.1,92.2,299.8,92.1L299.8,92.1z"/>
	</g>
</g>
</svg>
