<svg fill="#005699" xmlns="http://www.w3.org/2000/svg" height="24" viewBox="0 -960 960 960" width="24"><path d="M480-179.46q117.38-105.08 179.65-201.58 62.27-96.5 62.27-169.04 0-109.38-69.5-179.84-69.5-70.46-172.42-70.46-102.92 0-172.42 70.46-69.5 70.46-69.5 179.84 0 72.54 62.27 169.04 62.27 96.5 179.65 201.58Zm-23.38 53.04q-11.7-4.04-21.16-12.5-53.84-49.62-100.77-102.2-46.92-52.57-81.57-105.11-34.66-52.54-54.85-104.15-20.19-51.62-20.19-99.7 0-138.46 89.57-224.19Q357.23-860 480-860t212.35 85.73q89.57 85.73 89.57 224.19 0 48.08-20.19 99.5-20.19 51.43-54.65 104.16-34.47 52.73-81.39 105.11-46.92 52.39-100.77 102-9.46 8.46-21.34 12.69-11.89 4.23-23.58 4.23-11.69 0-23.38-4.03ZM480-557.69Zm51.11 51.11q21.2-21.19 21.2-51.11 0-29.92-21.2-51.12Q509.92-630 480-630q-29.92 0-51.11 21.19-21.2 21.2-21.2 51.12 0 29.92 21.2 51.11 21.19 21.19 51.11 21.19 29.92 0 51.11-21.19Z"/></svg>