<svg xmlns="http://www.w3.org/2000/svg" height="24" viewBox="0 -960 960 960" width="24"><path d="M301.04-533.35Q260-574.38 260-632.31q0-57.92 41.04-98.96 41.04-41.04 98.96-41.04 57.92 0 98.96 41.04Q540-690.23 540-632.31q0 57.93-41.04 98.96-41.04 41.04-98.96 41.04-57.92 0-98.96-41.04ZM100-248.46v-28.16q0-30.3 15.66-54.88 15.65-24.58 42.96-38.42 54.15-27.46 112.3-42.62 58.16-15.15 118.93-15.15h5.77q12.76 0 21.38 8.92 8.61 8.92 8.61 21.69 0 12.77-8.61 21.39-8.62 8.61-21.38 8.61h-5.77q-54.08 0-104.85 13.04Q234.23-341 186.15-316q-11.53 6.15-18.84 16.31-7.31 10.15-7.31 23.07v28.93h235.62q12.76 0 21.38 8.61 8.61 8.62 8.61 21.39 0 12.77-8.61 21.38-8.62 8.62-21.38 8.62H160.77q-25.31 0-43.04-17.73Q100-223.16 100-248.46Zm540.15 67.23-4.84-29.93q-14.31-4.23-26.93-11.07-12.61-6.85-24-17.16l-29.76 10.93q-9.54 3.23-18.39-.43-8.84-3.65-13.92-11.57l-5.31-9.39q-5.08-8.54-3.65-18.69 1.42-10.15 9.34-16.46l23.93-19q-4.31-15.54-4.31-30.62 0-15.07 4.31-30.61L523.08-385q-7.92-6.31-9.54-15.96-1.62-9.66 3.46-18.19l5.92-10q5.08-7.93 13.81-11.58 8.73-3.65 18.27-.42l29.38 10.92q11-10.31 23.81-16.96 12.81-6.66 27.12-10.89l4.84-30.54q1.85-10.15 9.47-16.34 7.61-6.19 17.76-6.19H678q10.15 0 17.77 6.5 7.61 6.5 9.46 16.65l4.46 29.92q14.31 4.23 27.12 11.2 12.8 6.96 23.8 17.88l28.16-10.92q10.15-3.85 19.31-.2 9.15 3.66 14.23 12.2l5.69 9.38q5.07 8.54 3.46 18.5-1.62 9.96-9.54 16.27L798.38-364q4.31 14.31 4.31 30t-4.31 30l23.93 19q7.92 6.31 9.34 16.15 1.42 9.85-3.65 18.39l-5.93 10q-5.07 7.92-13.61 11.57-8.54 3.66-18.08.43l-29.77-10.93q-11.38 10.31-24 17.16-12.61 6.84-26.92 11.07l-4.46 30.54q-1.85 10.16-9.46 16.35-7.62 6.19-17.77 6.19h-10.62q-10.15 0-17.76-6.5-7.62-6.5-9.47-16.65Zm85.96-99.58q22.35-22.35 22.35-53.81t-22.35-53.8q-22.34-22.35-53.8-22.35-31.46 0-53.81 22.35-22.35 22.34-22.35 53.8 0 31.46 22.35 53.81t53.81 22.35q31.46 0 53.8-22.35Zm-269.61-295q23.5-23.5 23.5-56.5t-23.5-56.5q-23.5-23.5-56.5-23.5t-56.5 23.5q-23.5 23.5-23.5 56.5t23.5 56.5q23.5 23.5 56.5 23.5t56.5-23.5Zm-56.5-56.5Zm12 384.62Z"/></svg>