<svg xmlns="http://www.w3.org/2000/svg" height="24" viewBox="0 -960 960 960" width="24"><path d="M287.08-536.77q6.77-6.77 6.77-17.08v-12.3q0-10.31-6.77-17.08Q280.31-590 270-590q-10.31 0-17.08 6.77-6.77 6.77-6.77 17.08v12.3q0 10.31 6.77 17.08Q259.69-530 270-530q10.31 0 17.08-6.77Zm100 80q6.77-6.77 6.77-17.08v-172.3q0-10.31-6.77-17.08Q380.31-670 370-670q-10.31 0-17.08 6.77-6.77 6.77-6.77 17.08v172.3q0 10.31 6.77 17.08Q359.69-450 370-450q10.31 0 17.08-6.77Zm110 80q6.77-6.77 6.77-17.08v-332.3q0-10.31-6.77-17.08Q490.31-750 480-750q-10.31 0-17.08 6.77-6.77 6.77-6.77 17.08v332.3q0 10.31 6.77 17.08Q469.69-370 480-370q10.31 0 17.08-6.77Zm110-80q6.77-6.77 6.77-17.08v-172.3q0-10.31-6.77-17.08Q600.31-670 590-670q-10.31 0-17.08 6.77-6.77 6.77-6.77 17.08v172.3q0 10.31 6.77 17.08Q579.69-450 590-450q10.31 0 17.08-6.77Zm100-80q6.77-6.77 6.77-17.08v-12.3q0-10.31-6.77-17.08Q700.31-590 690-590q-10.31 0-17.08 6.77-6.77 6.77-6.77 17.08v12.3q0 10.31 6.77 17.08Q679.69-530 690-530q10.31 0 17.08-6.77ZM241.54-260l-80.08 80.07q-17.07 17.08-39.27 7.74Q100-181.54 100-205.85v-581.84Q100-818 121-839q21-21 51.31-21h615.38Q818-860 839-839q21 21 21 51.31v455.38Q860-302 839-281q-21 21-51.31 21H241.54ZM216-320h571.69q4.62 0 8.46-3.85 3.85-3.84 3.85-8.46v-455.38q0-4.62-3.85-8.46-3.84-3.85-8.46-3.85H172.31q-4.62 0-8.46 3.85-3.85 3.84-3.85 8.46v523.08L216-320Zm-56 0v-480 480Z"/></svg>