<?xml version="1.0" encoding="utf-8"?>
<!-- Generator: Adobe Illustrator 24.3.0, SVG Export Plug-In . SVG Version: 6.00 Build 0)  -->
<svg version="1.1" id="Layer_1" xmlns="http://www.w3.org/2000/svg" xmlns:xlink="http://www.w3.org/1999/xlink" x="0px" y="0px"
	 viewBox="0 0 24 24" style="enable-background:new 0 0 24 24;" xml:space="preserve">
<g>
	<path d="M12,15.1c0.8,0,1.6-0.3,2.1-0.9c0.6-0.6,0.9-1.4,0.9-2.1V7.5c0-0.8-0.3-1.6-0.9-2.1c-1.1-1.1-3.1-1.1-4.3,0
		C9.3,5.9,9,6.7,9,7.5v4.6c0,0.8,0.3,1.6,0.9,2.1C10.4,14.8,11.1,15.1,12,15.1z M10,7.5c0-0.5,0.2-1,0.6-1.4s0.8-0.6,1.4-0.6
		c0.5,0,1,0.2,1.4,0.6s0.6,0.8,0.6,1.4v4.6c0,0.5-0.2,1-0.6,1.4c-0.8,0.8-2,0.8-2.7,0c-0.4-0.4-0.6-0.8-0.6-1.4
		C10,12.1,10,7.5,10,7.5z"/>
	<path d="M16.9,9.6c-0.2-0.2-0.5-0.2-0.8,0C16.1,9.7,16,9.8,16,10v2.1c0,2.3-1.8,4.1-4.1,4.1s-4.1-1.8-4.1-4.1V10
		c0-0.3-0.2-0.5-0.5-0.5l0,0C7.2,9.4,7.1,9.5,7,9.6C6.8,9.7,6.8,9.8,6.8,10v2.1c0,2.6,2,4.8,4.6,5.1v1.3H9.9c-0.3,0-0.5,0.2-0.5,0.5
		s0.2,0.5,0.5,0.5h4.2c0.3,0,0.5-0.2,0.5-0.5c0-0.3-0.2-0.5-0.5-0.5h-1.6v-1.3c2.6-0.3,4.6-2.5,4.6-5.1V10
		C17.1,9.8,17.1,9.8,16.9,9.6z"/>
</g>
<g>
	<path d="M7.1,19.4c-0.1,0-0.2,0-0.3-0.1c-0.2-0.2-0.3-0.5-0.2-0.8L16.2,5c0.2-0.2,0.5-0.3,0.8-0.2c0.2,0.2,0.3,0.5,0.2,0.8
		L7.5,19.2C7.4,19.3,7.2,19.4,7.1,19.4z"/>
</g>
</svg>
