<?xml version="1.0" encoding="utf-8"?>
<!-- Generator: Adobe Illustrator 24.3.0, SVG Export Plug-In . SVG Version: 6.00 Build 0)  -->
<svg version="1.1" id="Layer_1" xmlns="http://www.w3.org/2000/svg" xmlns:xlink="http://www.w3.org/1999/xlink" x="0px" y="0px"
	 viewBox="0 0 24 24" style="enable-background:new 0 0 24 24;" xml:space="preserve">
<g id="noun-add-929469" transform="translate(-102.6 -102.6)">
	<path id="Path_270" d="M107.5,107.5c-3.9,3.9-3.9,10.2,0,14.1c3.9,3.9,10.2,3.9,14.1,0c3.9-3.9,3.9-10.2,0-14.1
		C117.8,103.6,111.4,103.6,107.5,107.5C107.5,107.5,107.5,107.5,107.5,107.5z M120.5,120.5c-3.3,3.3-8.5,3.3-11.8,0
		c-3.3-3.3-3.3-8.5,0-11.8c3.3-3.3,8.5-3.3,11.8,0C123.7,112,123.7,117.2,120.5,120.5z"/>
	<path id="Path_271" d="M114.6,109.8c-0.4,0-0.8,0.4-0.8,0.8c0,0,0,0,0,0v3.1h-3.1c-0.5,0-0.8,0.4-0.8,0.8c0,0.5,0.4,0.8,0.8,0.8
		h3.1v3.1c0,0.4,0.4,0.8,0.8,0.8c0,0,0,0,0,0c0.5,0,0.8-0.4,0.8-0.8v-3.1h3.1c0.5,0,0.8-0.4,0.8-0.8c0-0.4-0.4-0.8-0.8-0.8
		c0,0,0,0,0,0h-3.1v-3.1C115.4,110.2,115.1,109.8,114.6,109.8C114.6,109.8,114.6,109.8,114.6,109.8z"/>
</g>
</svg>
