<?xml version="1.0" encoding="utf-8"?>
<!-- Generator: Adobe Illustrator 24.3.0, SVG Export Plug-In . SVG Version: 6.00 Build 0)  -->
<svg version="1.1" id="Layer_1" xmlns="http://www.w3.org/2000/svg" xmlns:xlink="http://www.w3.org/1999/xlink" x="0px" y="0px"
	 viewBox="0 0 24 24" style="enable-background:new 0 0 24 24;" xml:space="preserve">
<g id="Icones_Outline">
	<g id="Delete_Black_24dp">
		<g id="noun_Stop_3592251" transform="translate(2.000000, 2.000000)">
			<path id="Shape" d="M10,0C4.5,0,0,4.5,0,10s4.5,10,10,10s10-4.5,10-10S15.5,0,10,0z M10,1.3c2.1,0,4.1,0.7,5.6,2.1L3.4,15.6
				C1.2,13,0.7,9.4,2.1,6.4S6.6,1.3,10,1.3L10,1.3z M10,18.7c-2.1,0-4.1-0.8-5.7-2.1L16.6,4.4c2.2,2.6,2.7,6.2,1.3,9.2
				C16.4,16.7,13.4,18.7,10,18.7z"/>
		</g>
	</g>
</g>
</svg>
