<svg xmlns="http://www.w3.org/2000/svg" height="24" viewBox="0 -960 960 960" width="24"><path d="M210-204.62q-12.77 0-21.38-8.61-8.62-8.62-8.62-21.38 0-12.77 8.62-21.39 8.61-8.61 21.38-8.61h42.31v-298.47q0-80.69 49.81-142.69 49.8-62 127.88-79.31V-810q0-20.77 14.62-35.38Q459.23-860 480-860q20.77 0 35.38 14.62Q530-830.77 530-810v24.92q78.08 17.31 127.88 79.31 49.81 62 49.81 142.69v298.47H750q12.77 0 21.38 8.61 8.62 8.62 8.62 21.39 0 12.76-8.62 21.38-8.61 8.61-21.38 8.61H210Zm270-293.07Zm0 405.38q-29.92 0-51.11-21.19-21.2-21.19-21.2-51.12h144.62q0 29.93-21.2 51.12Q509.92-92.31 480-92.31Zm-167.69-172.3h335.38v-298.47q0-69.46-49.11-118.57-49.12-49.12-118.58-49.12-69.46 0-118.58 49.12-49.11 49.11-49.11 118.57v298.47ZM134.62-563.46q-12.77 0-21.39-9.73-8.61-9.73-7.38-22.89 6.07-69.23 35.84-129.69 29.77-60.46 77-106.15 9.93-8.69 22.39-8.66 12.46.04 20.53 10.58 8.08 10.16 6.85 22.31-1.23 12.15-11.15 21.46-37.46 37.38-60.93 86.19-23.46 48.81-29.53 105.04-1.62 13.15-10.35 22.35-8.73 9.19-21.88 9.19Zm690.76 0q-13.15 0-21.88-9.19-8.73-9.2-10.35-22.35-6.07-56.23-29.34-104.85-23.27-48.61-60.73-86-9.93-9.3-11.54-21.65-1.62-12.34 6.46-22.5 8.08-10.54 20.73-10.38 12.65.15 22.58 8.84 47.23 45.7 77 105.96 29.77 60.27 35.84 129.5 1.23 13.16-7.38 22.89-8.62 9.73-21.39 9.73Z"/></svg>