<svg xmlns="http://www.w3.org/2000/svg" width="20.8" height="19.827" viewBox="0 0 20.8 19.827">
  <path id="noun-letter-1234707" d="M105.685,107.756h-3.551l-1.509-.98a1.175,1.175,0,0,0-1.281,0l-1.509.98H94.287a1.88,1.88,0,0,0-1.88,1.88v1.645l-2.312,1.5a.221.221,0,0,0-.024.023l-.019.019h0a.231.231,0,0,0-.028.035.235.235,0,0,0-.026.063V123.8a2.115,2.115,0,0,0,2.115,2.115h15.769A2.115,2.115,0,0,0,110,123.8v-10.81a.227.227,0,0,0,0-.035.181.181,0,0,0-.031-.089.232.232,0,0,0-.028-.035l-.019-.019a.212.212,0,0,0-.023-.023l-2.312-1.5v-1.645a1.88,1.88,0,0,0-1.9-1.88ZM99.6,107.17a.7.7,0,0,1,.768,0l.9.585H98.7Zm-6.726,2.465a1.41,1.41,0,0,1,1.41-1.41h11.4a1.41,1.41,0,0,1,1.41,1.41v4.982l-6.559,4.735a.94.94,0,0,1-1.1,0l-6.559-4.735Zm-.47,2.209v2.432L90.635,113Zm17.109,11.95a1.645,1.645,0,0,1-1.645,1.645H92.1a1.645,1.645,0,0,1-1.645-1.645v-10.34l8.7,6.284a1.41,1.41,0,0,0,1.645,0l8.7-6.284Zm-.179-10.8-1.772,1.281v-2.43Z" transform="translate(-89.449 -106.336)" fill="#03b9e9" stroke="#03b9e9" stroke-width="0.5"/>
</svg>
