<svg xmlns="http://www.w3.org/2000/svg" height="24" viewBox="0 -960 960 960" width="24"><path d="M595.58-384.42q47.5-47.5 47.5-115.58t-47.5-115.58q-47.5-47.5-115.58-47.5t-115.58 47.5q-47.5 47.5-47.5 115.58t47.5 115.58q47.5 47.5 115.58 47.5t115.58-47.5ZM403.5-423.5Q372-455 372-500t31.5-76.5Q435-608 480-608t76.5 31.5Q588-545 588-500t-31.5 76.5Q525-392 480-392t-76.5-31.5ZM248.96-287.39q-104.73-67.38-167.19-177.3-5-8.62-7.31-17.35-2.3-8.73-2.3-17.96t2.3-17.96q2.31-8.73 7.31-17.35 62.46-109.92 167.19-177.3Q353.69-780 480-780q126.31 0 231.04 67.39 104.73 67.38 167.19 177.3 5 8.62 7.31 17.35 2.3 8.73 2.3 17.96t-2.3 17.96q-2.31 8.73-7.31 17.35-62.46 109.92-167.19 177.3Q606.31-220 480-220q-126.31 0-231.04-67.39ZM480-500Zm207.5 160.5Q782-399 832-500q-50-101-144.5-160.5T480-720q-113 0-207.5 59.5T128-500q50 101 144.5 160.5T480-280q113 0 207.5-59.5Z"/></svg>