<svg xmlns="http://www.w3.org/2000/svg" width="12.727" height="15.636" viewBox="0 0 12.727 15.636"><defs><style>.a{fill:#03b9e9;}</style></defs><g transform="translate(-0.182 -0.182)"><path class="a" d="M10.727,10.182H2a2,2,0,0,1-2-2V2A2,2,0,0,1,2,0h8.727a2,2,0,0,1,2,2V8.182a2,2,0,0,1-2,2ZM2,1.091A.91.91,0,0,0,1.091,2V8.182A.91.91,0,0,0,2,9.091h8.727a.908.908,0,0,0,.909-.909V2a.908.908,0,0,0-.909-.909Z" transform="translate(0.182 5.636)"/><path class="a" d="M8.545,6.546h-8A.546.546,0,0,1,0,6V4.181A4.048,4.048,0,0,1,1.35,1.207,4.73,4.73,0,0,1,4.546,0,4.729,4.729,0,0,1,7.741,1.207a4.048,4.048,0,0,1,1.35,2.974V6A.546.546,0,0,1,8.545,6.546Zm-4-5.455a3.645,3.645,0,0,0-2.462.923,2.918,2.918,0,0,0-.993,2.167V5.455H8V4.181a2.918,2.918,0,0,0-.993-2.167A3.644,3.644,0,0,0,4.546,1.091Z" transform="translate(2 0.182)"/><path class="a" d="M1.636,3.272A1.636,1.636,0,1,1,3.272,1.636,1.638,1.638,0,0,1,1.636,3.272Zm0-2.182a.545.545,0,1,0,.545.545A.546.546,0,0,0,1.636,1.091Z" transform="translate(4.909 8.182)"/><path class="a" d="M0,.545V2.364a.545.545,0,1,0,1.091,0V.545A.545.545,0,0,0,0,.545Z" transform="translate(6 10.364)"/></g></svg>