<svg xmlns="http://www.w3.org/2000/svg" width="15.931" height="10.568" viewBox="0 0 15.931 10.568"><defs><style>.a{fill:#005699;}.b,.d{fill:none;}.b{stroke:#005699;stroke-miterlimit:10;}.c{stroke:none;}</style></defs><path class="a" d="M7.933,8.867a7.081,7.081,0,0,1-3.7-1.292A12.409,12.409,0,0,1,1.359,4.858a.237.237,0,0,1,0-.366C2.092,3.6,4.681,1.216,6.044.79L5.253,0A18.682,18.682,0,0,0,.164,4.26a.629.629,0,0,0,.019.867A13.62,13.62,0,0,0,4.405,8.964a7.4,7.4,0,0,0,3.547,1A7.067,7.067,0,0,0,10.9,9.253L10.053,8.4A5.577,5.577,0,0,1,7.933,8.867Z" transform="translate(0 0.602)"/><path class="a" d="M10.487,4.843A13.154,13.154,0,0,0,6.227.987,7.284,7.284,0,0,0,2.892,0,6.436,6.436,0,0,0,0,.6l.848.848A5.691,5.691,0,0,1,2.641,1.1a5.788,5.788,0,0,1,2.583.617A11.437,11.437,0,0,1,8.81,4.5c.193.212.347.424.54.636a.209.209,0,0,1,.019.289,17.151,17.151,0,0,1-4.627,3.6l.79.79a21.4,21.4,0,0,0,4.973-4.067A.658.658,0,0,0,10.487,4.843Z" transform="translate(5.253)"/><g class="b" transform="translate(4.952 1.963)"><circle class="c" cx="3" cy="3" r="3"/><circle class="d" cx="3" cy="3" r="2.5"/></g></svg>