<?xml version="1.0" encoding="utf-8"?>
<!-- Generator: Adobe Illustrator 24.3.0, SVG Export Plug-In . SVG Version: 6.00 Build 0)  -->
<svg version="1.1" id="Layer_1" xmlns="http://www.w3.org/2000/svg" xmlns:xlink="http://www.w3.org/1999/xlink" x="0px" y="0px"
	 viewBox="0 0 24 24" style="enable-background:new 0 0 24 24;" xml:space="preserve">
<path d="M18.3,2H5.8C3.7,2,2,3.7,2,5.8v12.4C2,20.3,3.7,22,5.8,22h12.4c2.1,0,3.8-1.7,3.8-3.7V5.8C22,3.7,20.3,2,18.3,2z M20.6,5.8
	v2.7h-3.7v-5h1.4C19.6,3.5,20.6,4.5,20.6,5.8z M16.9,10h3.7v4.3h-3.7V10z M3.5,18.2V5.7c0-1.2,1-2.2,2.3-2.2h9.6v17H5.8
	C4.6,20.5,3.5,19.5,3.5,18.2z M18.3,20.5h-1.4v-4.8h3.7v2.5C20.6,19.5,19.6,20.5,18.3,20.5z"/>
</svg>
