<?xml version="1.0" encoding="utf-8"?>
<!-- Generator: Adobe Illustrator 24.3.0, SVG Export Plug-In . SVG Version: 6.00 Build 0)  -->
<svg version="1.1" id="Layer_1" xmlns="http://www.w3.org/2000/svg" xmlns:xlink="http://www.w3.org/1999/xlink" x="0px" y="0px"
	 viewBox="0 0 24 24" style="enable-background:new 0 0 24 24;" xml:space="preserve">
<path d="M18.3,2H5.8C3.7,2,2,3.7,2,5.8v12.4C2,20.3,3.7,22,5.8,22h12.4c2.1,0,3.8-1.7,3.8-3.7V5.8C22,3.7,20.3,2,18.3,2z M20.6,5.8
	V7h-4.8V3.5h2.5C19.6,3.5,20.6,4.5,20.6,5.8z M10.1,3.5h4.3V7h-4.3V3.5z M5.8,3.5h2.8V7H3.5V5.7C3.5,4.5,4.5,3.5,5.8,3.5z
	 M18.3,20.5H5.8c-1.2,0-2.3-1-2.3-2.3V8.5h17.1v9.7C20.6,19.5,19.6,20.5,18.3,20.5z"/>
</svg>
