<svg xmlns="http://www.w3.org/2000/svg" width="26.501" height="26.5" viewBox="0 0 26.501 26.5"><defs><style>.a{fill:#005699;stroke:#005699;stroke-miterlimit:10;stroke-width:0.5px;}</style></defs><g transform="translate(0.25 0.25)"><path class="a" d="M15.255,26C6.843,26,0,20.168,0,13S6.843,0,15.255,0c1.5,0,2.486.356,3.026,1.09.923,1.257.256,3.324-.389,5.322-.575,1.781-1.17,3.623-.518,4.58a2.281,2.281,0,0,0,1.843.787c6.269.447,6.83,3.714,6.78,5.1C25.852,20.86,20.617,26,15.255,26Zm0-25.361C7.2.639.642,6.184.642,13S7.2,25.361,15.255,25.361c5.043,0,9.964-4.793,10.1-8.507.092-2.57-2.1-4.146-6.183-4.437a2.867,2.867,0,0,1-2.33-1.066c-.825-1.214-.213-3.115.435-5.127.6-1.849,1.215-3.761.485-4.756A2.959,2.959,0,0,0,15.255.639Z" transform="translate(0 0)"/><path class="a" d="M2.6,3.466C1.166,3.466,0,2.689,0,1.733S1.166,0,2.6,0,5.2.777,5.2,1.733,4.034,3.466,2.6,3.466ZM2.6.491C1.525.491.651,1.048.651,1.733S1.525,2.975,2.6,2.975,4.55,2.418,4.55,1.733,3.675.491,2.6.491Z" transform="translate(8.667 3.467)"/><path class="a" d="M2.4,5.2a2.471,2.471,0,0,1-.687-.1A2.3,2.3,0,0,1,.235,3.859,2.55,2.55,0,0,1,.156,1.907,2.863,2.863,0,0,1,2.8,0a2.471,2.471,0,0,1,.687.1A2.309,2.309,0,0,1,4.965,1.34a2.55,2.55,0,0,1,.078,1.954A2.862,2.862,0,0,1,2.4,5.2ZM2.8.616A2.176,2.176,0,0,0,.812,2.093,1.985,1.985,0,0,0,.867,3.618a1.656,1.656,0,0,0,1.054.9,1.677,1.677,0,0,0,.465.064,2.215,2.215,0,0,0,2-1.474,1.987,1.987,0,0,0-.056-1.527,1.656,1.656,0,0,0-1.054-.9A1.761,1.761,0,0,0,2.8.616Z" transform="translate(3.467 6.933)"/><path class="a" d="M2.192,5.2a2.072,2.072,0,0,1-1.6-1.171,4.23,4.23,0,0,1-.586-1.9A2.492,2.492,0,0,1,.431.431,1.061,1.061,0,0,1,1.275,0a2.072,2.072,0,0,1,1.6,1.171,4.251,4.251,0,0,1,.588,1.9,2.494,2.494,0,0,1-.426,1.7A1.061,1.061,0,0,1,2.192,5.2ZM1.275.695A.663.663,0,0,0,.746.956a1.654,1.654,0,0,0-.26,1.116,3.363,3.363,0,0,0,.471,1.5,1.67,1.67,0,0,0,1.252.917.632.632,0,0,0,.512-.247,1.643,1.643,0,0,0,.262-1.114,3.367,3.367,0,0,0-.471-1.5A1.656,1.656,0,0,0,1.275.695Z" transform="translate(3.467 13.866)"/><path class="a" d="M1.777,3.466A1.84,1.84,0,0,1,.148,2.782,1.024,1.024,0,0,1,.057,1.91,2.888,2.888,0,0,1,1.751.36,4.3,4.3,0,0,1,3.424,0,1.838,1.838,0,0,1,5.052.683a1.165,1.165,0,0,1-.145,1.331A3.42,3.42,0,0,1,3.45,3.106,4.3,4.3,0,0,1,1.777,3.466ZM3.424.5a3.645,3.645,0,0,0-1.4.3A2.426,2.426,0,0,0,.645,2.042a.6.6,0,0,0,.044.509,1.246,1.246,0,0,0,1.088.409,3.67,3.67,0,0,0,1.4-.3,2.856,2.856,0,0,0,1.211-.9A.754.754,0,0,0,4.512.914,1.246,1.246,0,0,0,3.424.5Z" transform="translate(17.333 17.333)"/><path class="a" d="M2.913,3.466a4.019,4.019,0,0,1-.746-.07A3.274,3.274,0,0,1,.511,2.6,1.385,1.385,0,0,1,.038,1.246,2.156,2.156,0,0,1,2.288,0a4.011,4.011,0,0,1,.744.07A2.944,2.944,0,0,1,4.981,1.229a1.24,1.24,0,0,1,.183.989A2.155,2.155,0,0,1,2.913,3.466ZM2.288.543c-.834,0-1.5.338-1.631.822a.909.909,0,0,0,.331.875,2.592,2.592,0,0,0,1.318.626,3.173,3.173,0,0,0,.581.054c.836,0,1.533-.344,1.657-.818a.776.776,0,0,0-.121-.616A2.341,2.341,0,0,0,2.9.6,3.287,3.287,0,0,0,2.288.543Z" transform="translate(10.4 19.066)"/></g></svg>