<svg xmlns="http://www.w3.org/2000/svg" height="24" viewBox="0 -960 960 960" width="24"><path d="M381.04-533.35Q340-574.38 340-632.31q0-57.92 41.04-98.96 41.04-41.04 98.96-41.04 57.92 0 98.96 41.04Q620-690.23 620-632.31q0 57.93-41.04 98.96-41.04 41.04-98.96 41.04-57.92 0-98.96-41.04ZM180-248.46v-28.16q0-29.38 15.96-54.42 15.96-25.04 42.66-38.5 59.3-29.07 119.65-43.61 60.35-14.54 121.73-14.54t121.73 14.54q60.35 14.54 119.65 43.61 26.7 13.46 42.66 38.5Q780-306 780-276.62v28.16q0 25.3-17.73 43.04-17.73 17.73-43.04 17.73H240.77q-25.31 0-43.04-17.73Q180-223.16 180-248.46Zm60 .77h480v-28.93q0-12.15-7.04-22.5-7.04-10.34-19.11-16.88-51.7-25.46-105.35-38.58-53.65-13.11-108.5-13.11t-108.5 13.11Q317.85-341.46 266.15-316q-12.07 6.54-19.11 16.88-7.04 10.35-7.04 22.5v28.93Zm296.5-328.12q23.5-23.5 23.5-56.5t-23.5-56.5q-23.5-23.5-56.5-23.5t-56.5 23.5q-23.5 23.5-23.5 56.5t23.5 56.5q23.5 23.5 56.5 23.5t56.5-23.5Zm-56.5-56.5Zm0 384.62Z"/></svg>