<svg xmlns="http://www.w3.org/2000/svg" width="16" height="16" viewBox="0 0 16 16">
  <path id="phone_in_talk_FILL0_wght400_GRAD0_opsz24_1_" data-name="phone_in_talk_FILL0_wght400_GRAD0_opsz24 (1)" d="M134.222-832a6,6,0,0,0-1.811-4.411A6,6,0,0,0,128-838.222V-840a7.737,7.737,0,0,1,3.122.633,8.132,8.132,0,0,1,2.533,1.711,8.133,8.133,0,0,1,1.711,2.533A7.74,7.74,0,0,1,136-832Zm-3.556,0a2.572,2.572,0,0,0-.778-1.889,2.571,2.571,0,0,0-1.889-.778v-1.778a4.283,4.283,0,0,1,3.144,1.3,4.283,4.283,0,0,1,1.3,3.144Zm4.4,8a13.343,13.343,0,0,1-5.489-1.211,16.42,16.42,0,0,1-4.933-3.433,16.42,16.42,0,0,1-3.433-4.933A13.343,13.343,0,0,1,120-839.067a.9.9,0,0,1,.267-.667.9.9,0,0,1,.667-.267h3.6a.827.827,0,0,1,.556.211.812.812,0,0,1,.289.5l.578,3.111a1.567,1.567,0,0,1-.022.6.934.934,0,0,1-.244.422l-2.156,2.178a10.745,10.745,0,0,0,1.056,1.589,15.638,15.638,0,0,0,1.344,1.478,15.651,15.651,0,0,0,1.444,1.278,14.051,14.051,0,0,0,1.6,1.078l2.089-2.089a1.245,1.245,0,0,1,.522-.3,1.431,1.431,0,0,1,.633-.056l3.067.622a1.029,1.029,0,0,1,.511.322.782.782,0,0,1,.2.522v3.6a.9.9,0,0,1-.267.667A.9.9,0,0,1,135.067-824Zm-12.378-10.667,1.467-1.467-.378-2.089H121.8a18.259,18.259,0,0,0,.311,1.8A9.736,9.736,0,0,0,122.689-834.667Zm7.956,7.956a11.029,11.029,0,0,0,1.767.6,10.838,10.838,0,0,0,1.811.289v-1.956l-2.089-.422ZM122.689-834.667ZM130.644-826.711Z" transform="translate(-120 840)"/>
</svg>
