<?xml version="1.0" encoding="utf-8"?>
<!-- Generator: Adobe Illustrator 24.3.0, SVG Export Plug-In . SVG Version: 6.00 Build 0)  -->
<svg version="1.1" id="Layer_1" xmlns="http://www.w3.org/2000/svg" xmlns:xlink="http://www.w3.org/1999/xlink" x="0px" y="0px"
	 viewBox="0 0 24 24" style="enable-background:new 0 0 24 24;" xml:space="preserve">
<g id="noun-overview-4287788" transform="translate(-112.49 -112.51)">
	<path id="Path_272" d="M134.5,133.4l-3.5-3.5c3.3-3.9,2.8-9.8-1.1-13.2c-3.9-3.3-9.8-2.8-13.2,1.1c-3.3,3.9-2.8,9.8,1.1,13.2
		c3.5,2.9,8.6,2.9,12.1,0l3.5,3.5L134.5,133.4z M123.8,131.6c-4.3,0-7.8-3.5-7.8-7.8s3.5-7.8,7.8-7.8c4.3,0,7.8,3.5,7.8,7.8l0,0
		C131.6,128.2,128.1,131.6,123.8,131.6L123.8,131.6z"/>
	<path id="Path_273" d="M123.8,119.7c-3.5,0-6.2,1.8-6.2,4.1s2.7,4.1,6.2,4.1c3.5,0,6.2-1.8,6.2-4.1S127.3,119.7,123.8,119.7z
		 M123.8,126.6c-2.6,0-4.8-1.3-4.8-2.8s2.2-2.8,4.8-2.8c2.6,0,4.8,1.3,4.8,2.8S126.5,126.6,123.8,126.6z"/>
	<path id="Path_274" d="M126.1,123.9c0,1.3-1,2.3-2.3,2.3c-1.3,0-2.3-1-2.3-2.3c0-1.3,1-2.3,2.3-2.3
		C125.1,121.6,126.1,122.6,126.1,123.9L126.1,123.9"/>
</g>
</svg>
