<svg xmlns="http://www.w3.org/2000/svg" height="24" viewBox="0 -960 960 960" width="24"><path d="M212.31-140q-29.92 0-51.12-21.19Q140-182.39 140-212.31v-535.38q0-29.92 21.19-51.12Q182.39-820 212.31-820h535.38q29.92 0 51.12 21.19Q820-777.61 820-747.69v535.38q0 29.92-21.19 51.12Q777.61-140 747.69-140H212.31Zm0-60h535.38q5.39 0 8.85-3.46t3.46-8.85V-680H200v467.69q0 5.39 3.46 8.85t8.85 3.46Zm135.81-138.92q-58.35-38.93-86.2-101.08 27.85-62.15 86.2-101.08Q406.46-580 480-580q73.54 0 131.88 38.92 58.35 38.93 86.2 101.08-27.85 62.15-86.2 101.08Q553.54-300 480-300q-73.54 0-131.88-38.92Zm227.15-33.16q43.5-24.38 70.65-67.92-27.15-43.54-70.65-67.92-43.5-24.39-95.27-24.39-51.77 0-95.27 24.39-43.5 24.38-70.65 67.92 27.15 43.54 70.65 67.92 43.5 24.39 95.27 24.39 51.77 0 95.27-24.39ZM480-440Zm37.11 37.11q15.2-15.19 15.2-37.11t-15.2-37.11q-15.19-15.2-37.11-15.2t-37.11 15.2q-15.2 15.19-15.2 37.11t15.2 37.11q15.19 15.2 37.11 15.2t37.11-15.2Z"/></svg>