<?xml version="1.0" encoding="utf-8"?>
<!-- Generator: Adobe Illustrator 24.3.0, SVG Export Plug-In . SVG Version: 6.00 Build 0)  -->
<svg version="1.1" id="Layer_1" xmlns="http://www.w3.org/2000/svg" xmlns:xlink="http://www.w3.org/1999/xlink" x="0px" y="0px"
	 viewBox="0 0 24 24" style="enable-background:new 0 0 24 24;" xml:space="preserve">
<g id="Lock_Black_24dp" transform="translate(-3.7 -2)">
	<path id="Path_294" d="M15.7,15c-1.1,0-2.1,0.9-2.1,2c0,0,0,0.1,0,0.1c0,0.5,0.2,0.9,0.5,1.3v1.1c0,0.9,0.7,1.6,1.6,1.6
		c0.9,0,1.6-0.7,1.6-1.6v-1.1c0.3-0.4,0.5-0.8,0.5-1.3C17.8,16,16.9,15,15.7,15C15.8,15,15.7,15,15.7,15z M15.2,17.7
		c-0.2-0.1-0.3-0.4-0.3-0.6c0-0.4,0.3-0.8,0.8-0.8c0,0,0,0,0,0c0.4,0,0.8,0.3,0.8,0.7c0,0,0,0.1,0,0.1c0,0.2-0.1,0.4-0.3,0.6
		C16.1,17.8,16,18,16,18.2v1.3c0,0.2-0.1,0.3-0.3,0.3s-0.3-0.1-0.3-0.3v-1.3C15.4,18,15.3,17.8,15.2,17.7z"/>
	<path id="Path_295" d="M22.4,12.1h-1.2V9.5c0-3-2.5-5.5-5.5-5.5s-5.5,2.5-5.5,5.5v2.7H9c-0.9,0-1.6,0.7-1.6,1.6c0,0,0,0,0,0v8.6
		C7.4,23.3,8.1,24,9,24c0,0,0,0,0,0h13.4c0.9,0,1.6-0.7,1.6-1.6c0,0,0,0,0,0v-8.6C24,12.9,23.3,12.1,22.4,12.1z M11.6,12.1V9.5
		c0-2.3,1.8-4.1,4.1-4.1c2.3,0,4.1,1.8,4.1,4.1v2.7L11.6,12.1L11.6,12.1z M22.7,13.8v8.6c0,0.1-0.1,0.3-0.2,0.3c0,0-0.1,0-0.1,0H9
		c-0.1,0-0.3-0.1-0.3-0.2c0,0,0-0.1,0-0.1v-8.6c0-0.1,0.1-0.3,0.2-0.3c0,0,0.1,0,0.1,0h13.4C22.5,13.5,22.7,13.6,22.7,13.8
		C22.7,13.7,22.7,13.8,22.7,13.8z"/>
</g>
</svg>
