<?xml version="1.0" encoding="utf-8"?>
<!-- Generator: Adobe Illustrator 24.3.0, SVG Export Plug-In . SVG Version: 6.00 Build 0)  -->
<svg version="1.1" id="Layer_1" xmlns="http://www.w3.org/2000/svg" xmlns:xlink="http://www.w3.org/1999/xlink" x="0px" y="0px"
	 viewBox="0 0 24 24" style="enable-background:new 0 0 24 24;" xml:space="preserve">
<g id="Quote" transform="translate(-119.998 -268.136)">
	<path id="Path_245" d="M140.3,278.1h-3.3c-0.2-1.5,0.1-3,0.9-4.2c0.1-0.2,0.1-0.5-0.1-0.6c-0.1-0.1-0.3-0.1-0.4,0
		c-0.6,0.3-1.2,0.6-1.7,1.1c-1.4,1.4-2.3,3.2-2.4,5.1c0,0.2,0,0.3,0,0.4v5.5c0,1,0.8,1.7,1.7,1.7h5.5c1,0,1.7-0.8,1.8-1.7
		c0,0,0,0,0,0v-5.5C142,278.9,141.2,278.1,140.3,278.1z"/>
	<path id="Path_246" d="M129.2,278.1h-3.3c-0.1-0.9-0.1-1.8,0.2-2.7c0.2-0.5,0.4-1.1,0.7-1.5c0.1-0.2,0.1-0.5-0.1-0.6
		c-0.1-0.1-0.3-0.1-0.4,0c-0.6,0.3-1.2,0.6-1.7,1.1c-1.4,1.4-2.3,3.2-2.4,5.1c0,0.2,0,0.3,0,0.4v5.5c0,1,0.8,1.7,1.7,1.8
		c0,0,0,0,0,0h5.5c1,0,1.7-0.8,1.8-1.7c0,0,0,0,0,0v-5.5C131,278.9,130.2,278.1,129.2,278.1L129.2,278.1z"/>
</g>
</svg>
