<svg xmlns="http://www.w3.org/2000/svg" width="17.355" height="12" viewBox="0 0 17.355 12"><g transform="translate(-119.998 -268.136)"><path d="M656.059,272.357h-2.892a5.458,5.458,0,0,1,.766-3.651.372.372,0,0,0-.462-.538,5.65,5.65,0,0,0-1.506.946,7.116,7.116,0,0,0-2.126,4.415c-.019.148-.033.269-.041.347v4.744a1.516,1.516,0,0,0,1.516,1.516h4.742a1.517,1.517,0,0,0,1.519-1.519v-4.744a1.517,1.517,0,0,0-1.516-1.516Z" transform="translate(-520.222)"/><path d="M126.259,272.357h-2.892a5.488,5.488,0,0,1,.165-2.306,5.432,5.432,0,0,1,.6-1.345.372.372,0,0,0-.462-.538,5.651,5.651,0,0,0-1.506.946,7.116,7.116,0,0,0-2.126,4.415c-.019.148-.033.269-.041.347v4.742a1.517,1.517,0,0,0,1.519,1.519h4.74a1.517,1.517,0,0,0,1.519-1.519v-4.744a1.516,1.516,0,0,0-1.516-1.516Z"/></g></svg>