<?xml version="1.0" encoding="utf-8"?>
<!-- Generator: Adobe Illustrator 24.3.0, SVG Export Plug-In . SVG Version: 6.00 Build 0)  -->
<svg version="1.1" id="Layer_1" xmlns="http://www.w3.org/2000/svg" xmlns:xlink="http://www.w3.org/1999/xlink" x="0px" y="0px"
	 viewBox="0 0 24 24" style="enable-background:new 0 0 24 24;" xml:space="preserve">
<path d="M20.2,6.5c-1.4-2.2-3.6-3.7-6-4.2C9,1.1,3.9,4.2,2.7,9.3c0,0,0,0,0,0l0,0.1c-0.6,2.4-0.1,4.9,1.2,6.9c1.2,1.9,3,3.3,5.1,4
	l-0.4,0.3c-0.1,0-0.1,0.1-0.2,0.1C8,20.9,8,21.4,8.2,21.7C8.3,21.9,8.5,22,8.7,22c0,0,0.1,0,0.1,0c0.2,0,0.3-0.1,0.4-0.1l2-1.2
	c0.2-0.1,0.3-0.3,0.3-0.5s0-0.4-0.1-0.6l-1.3-2c-0.2-0.3-0.6-0.4-1-0.2c-0.4,0.2-0.5,0.7-0.3,1l0.2,0.4c-1.7-0.6-3.1-1.7-4.1-3.3
	c-1.1-1.7-1.4-3.8-1-5.9c0,0,0,0,0,0l0-0.1c1-4.2,5.3-6.8,9.7-5.9c2.1,0.5,3.9,1.8,5.1,3.6c1.1,1.7,1.4,3.8,1,5.9
	c-0.6,2.7-2.8,4.9-5.6,5.8c-0.4,0.1-0.6,0.5-0.5,0.9c0.1,0.4,0.5,0.6,0.9,0.5c3.3-1,5.9-3.7,6.7-6.9l0-0.1
	C21.9,11,21.5,8.5,20.2,6.5z"/>
</svg>
