<svg xmlns="http://www.w3.org/2000/svg" width="20" height="20" viewBox="0 0 20 20">
  <path id="refresh_FILL0_wght400_GRAD0_opsz24" d="M170-780a9.651,9.651,0,0,0,7.094-2.906A9.651,9.651,0,0,0,180-790a9.651,9.651,0,0,0-2.906-7.094A9.651,9.651,0,0,0,170-800a9.9,9.9,0,0,0-4.125.891,9.528,9.528,0,0,0-3.375,2.547V-800H160v8.75h8.75v-2.5H163.5a7.3,7.3,0,0,1,2.734-2.75,7.409,7.409,0,0,1,3.766-1,7.233,7.233,0,0,1,5.313,2.188A7.233,7.233,0,0,1,177.5-790a7.233,7.233,0,0,1-2.187,5.313A7.233,7.233,0,0,1,170-782.5a7.328,7.328,0,0,1-4.344-1.375,7.261,7.261,0,0,1-2.719-3.625h-2.625a9.87,9.87,0,0,0,3.563,5.406A9.7,9.7,0,0,0,170-780Z" transform="translate(-160 800)" fill="#fff"/>
</svg>
