<?xml version="1.0" encoding="UTF-8" standalone="no"?>
<svg
   height="24"
   viewBox="0 0 24 24"
   width="24"
   fill="#000000"
   version="1.1"
   id="svg6"
   xmlns="http://www.w3.org/2000/svg"
   xmlns:svg="http://www.w3.org/2000/svg">
  <defs
     id="defs10" />
  <path
     d="M 0,0 H 24 V 24 H 0 Z"
     fill="none"
     id="path2" />
  <path
     d="m 6.5400002,4.9999997 c 0.06,0.89 0.21,1.76 0.45,2.59 l -1.2,1.2000001 c -0.41,-1.2000001 -0.67,-2.4700001 -0.76,-3.7900001 h 1.51 M 16.4,17.02 c 0.85,0.239999 1.72,0.39 2.6,0.449999 v 1.49 c -1.32,-0.09 -2.59,-0.35 -3.8,-0.75 l 1.2,-1.19 M 7.5000002,2.9999997 h -3.5 c -0.55,0 -1,0.45 -1,1 C 3.0000002,13.39 10.61,21 20,21 c 0.55,0 1,-0.450001 1,-1 v -3.490001 c 0,-0.55 -0.45,-1 -1,-1 -1.24,0 -2.45,-0.2 -3.57,-0.57 -0.1,-0.04 -0.21,-0.05 -0.31,-0.05 -0.26,0 -0.51,0.1 -0.71,0.29 l -2.2,2.2 C 10.38,15.93 8.0600002,13.62 6.6200002,10.79 l 2.2,-2.2000002 c 0.28,-0.2800001 0.36,-0.6700001 0.25,-1.0200001 -0.37,-1.12 -0.57,-2.32 -0.57,-3.57 0,-0.5499999 -0.45,-1 -1,-1 z"
     id="path236"
     class="UnoptimicedTransforms"
     transform="rotate(-90,12,12)" />
  <path
     d="M 7.71,3.8962341 6.813761,3 3,6.8137608 6.813761,10.627521 7.71,9.7312916 4.798823,6.8137608 Z"
     id="path1678"
     style="stroke-width:0.635635" />
</svg>
