<?xml version="1.0" encoding="utf-8"?>
<!-- Generator: Adobe Illustrator 24.3.0, SVG Export Plug-In . SVG Version: 6.00 Build 0)  -->
<svg version="1.1" id="Layer_1" xmlns="http://www.w3.org/2000/svg" xmlns:xlink="http://www.w3.org/1999/xlink" x="0px" y="0px"
	 viewBox="0 0 24 24" style="enable-background:new 0 0 24 24;" xml:space="preserve">
<path d="M20.7,8.5c-0.1-1.3-1.1-2.3-2.4-2.3h-5.6c-0.3,0-0.7-0.2-0.9-0.5l-0.5-0.8c-0.4-0.7-1.2-1.2-2-1.2H5.7
	c-1.3,0-2.4,1.1-2.4,2.4l0.1,2.3c-0.4,0-0.7,0.2-1,0.5C2.2,9.2,2,9.6,2,10c0,0.1,0,0.2,0,0.3l1.1,7.9c0.2,1.2,1.2,2.1,2.4,2.1h13.1
	c1.2,0,2.2-0.9,2.4-2.1l1.1-7.9C22.1,9.4,21.5,8.6,20.7,8.5z M5.7,5.1h3.6c0.4,0,0.7,0.2,0.9,0.5l0.5,0.8c0.4,0.7,1.2,1.2,2,1.2h5.6
	c0.5,0,0.9,0.4,1,0.9H4.8L4.7,6.2l0,0C4.7,5.6,5.2,5.1,5.7,5.1z M19.5,18c-0.1,0.5-0.5,0.9-1,0.9H5.5c-0.5,0-0.9-0.4-1-0.9l-1.1-8
	c0-0.1,0-0.1,0.1-0.2c0,0,0.1-0.1,0.1-0.1l16.9,0c0.1,0,0.2,0.1,0.2,0.2L19.5,18z"/>
</svg>
