<?xml version="1.0" encoding="utf-8"?>
<!-- Generator: Adobe Illustrator 24.3.0, SVG Export Plug-In . SVG Version: 6.00 Build 0)  -->
<svg version="1.1" id="Layer_1" xmlns="http://www.w3.org/2000/svg" xmlns:xlink="http://www.w3.org/1999/xlink" x="0px" y="0px"
	 viewBox="0 0 24 24" style="enable-background:new 0 0 24 24;" xml:space="preserve">
<g id="Barre" transform="translate(-538.1 -437.472)">
	<path id="Path_267" d="M549.6,457.1c2.8,0,4.2-1,4.2-2.9c0-0.5-0.1-1-0.4-1.5c-0.3-0.4-0.6-0.8-1-1.1c-0.5-0.3-0.9-0.6-1.5-0.8
		c-0.5-0.2-1.1-0.4-1.7-0.7c-0.7-0.2-1.3-0.5-2-0.8c-0.6-0.3-1.1-0.6-1.6-1.1c-0.5-0.4-0.8-0.9-1.1-1.5c-0.3-0.7-0.4-1.4-0.4-2.1
		c-0.1-1.5,0.6-3,1.7-3.9c1.4-1,3-1.5,4.7-1.4c1.1,0,2.1,0.1,3.2,0.4c0.7,0.2,1.4,0.4,2.1,0.8l-0.9,2.2c-0.5-0.3-1.1-0.5-1.7-0.7
		c-0.9-0.2-1.8-0.4-2.7-0.3c-0.5,0-1,0.1-1.4,0.2c-0.4,0.1-0.8,0.3-1.2,0.5c-0.3,0.2-0.6,0.5-0.8,0.8c-0.2,0.4-0.3,0.8-0.3,1.2
		c0,0.5,0.1,0.9,0.3,1.3c0.2,0.4,0.5,0.7,0.9,0.9c0.4,0.3,0.8,0.5,1.3,0.7c0.5,0.2,1,0.4,1.6,0.7c0.8,0.3,1.6,0.7,2.3,1
		c0.7,0.3,1.3,0.7,1.8,1.2c0.5,0.5,0.9,1,1.2,1.6c0.3,0.7,0.4,1.5,0.4,2.3c0.1,1.5-0.6,3-1.8,3.9c-1.5,1-3.4,1.5-5.2,1.4
		c-0.7,0-1.4,0-2.1-0.2c-0.6-0.1-1.1-0.2-1.7-0.4c-0.4-0.1-0.9-0.3-1.3-0.4c-0.4-0.2-0.6-0.3-0.8-0.4l0.8-2.2
		c0.6,0.3,1.3,0.6,1.9,0.8C547.4,457,548.5,457.2,549.6,457.1z"/>
	<path id="Path_268" d="M542.8,453v-2.2h14.7v2.2H542.8z"/>
</g>
</svg>
