<?xml version="1.0" encoding="utf-8"?>
<!-- Generator: Adobe Illustrator 24.3.0, SVG Export Plug-In . SVG Version: 6.00 Build 0)  -->
<svg version="1.1" id="Layer_1" xmlns="http://www.w3.org/2000/svg" xmlns:xlink="http://www.w3.org/1999/xlink" x="0px" y="0px"
	 viewBox="0 0 24 24" style="enable-background:new 0 0 24 24;" xml:space="preserve">
<g>
	<path d="M2.9,9.1c0.5,0,0.9-0.4,0.9-0.9V4.2c0-0.2,0.2-0.3,0.3-0.3h3.9c0.5,0,1-0.4,1-0.9S8.6,2,8.1,2H4.2C3,2,2,3,2,4.2v3.9
		C2,8.6,2.4,9.1,2.9,9.1z"/>
	<path d="M21.1,14.9c-0.5,0-0.9,0.4-0.9,0.9v3.9c0,0.2-0.2,0.3-0.3,0.3h-3.9c-0.5,0-0.9,0.4-0.9,0.9c0,0.5,0.4,1,0.9,1h3.9
		c1.2,0,2.2-1,2.2-2.2v-3.9C22,15.4,21.6,14.9,21.1,14.9z"/>
	<path d="M8.1,20.1H4.2c-0.2,0-0.3-0.2-0.3-0.3v-3.9c0-0.5-0.4-1-1-1c-0.5,0-0.9,0.4-0.9,1v3.9C2,21,3,22,4.2,22h3.9
		c0.5,0,1-0.4,1-1C9.1,20.5,8.6,20.1,8.1,20.1z"/>
	<path d="M15.9,3.9h3.9c0.2,0,0.3,0.2,0.3,0.3v3.9c0,0.5,0.4,0.9,0.9,0.9S22,8.6,22,8.1V4.2C22,3,21,2,19.8,2h-3.9
		c-0.5,0-0.9,0.4-0.9,0.9S15.4,3.9,15.9,3.9z"/>
	<path d="M16.8,12c0-1.3-0.5-2.5-1.4-3.4c-0.9-0.9-2.1-1.4-3.4-1.4c0,0,0,0,0,0c-1.3,0-2.5,0.5-3.4,1.4C7.7,9.5,7.2,10.7,7.2,12
		c0,2.7,2.2,4.8,4.8,4.8c0,0,0,0,0,0C14.7,16.8,16.8,14.7,16.8,12z M12,9.1C12,9.1,12,9.1,12,9.1c1.6,0,2.9,1.3,2.9,2.9
		c0,0.8-0.3,1.5-0.9,2.1c-0.5,0.5-1.3,0.9-2.1,0.9c0,0,0,0,0,0c-1.6,0-2.9-1.3-2.9-2.9c0-0.8,0.3-1.5,0.9-2.1
		C10.5,9.4,11.2,9.1,12,9.1z"/>
</g>
</svg>
