<svg xmlns="http://www.w3.org/2000/svg" height="24" viewBox="0 -960 960 960" width="24"><path d="M566.15-235.38h-94.61q-12.77 0-21.39 8.61-8.61 8.62-8.61 21.38 0 12.77 8.61 21.39 8.62 8.61 21.39 8.61H590q15.46 0 25.81-10.34 10.34-10.35 10.34-25.81V-330q0-12.77-8.61-21.38-8.62-8.62-21.39-8.62-12.77 0-21.38 8.62-8.62 8.61-8.62 21.38v94.62ZM292.31-60q-29.92 0-51.12-21.19Q220-102.39 220-132.31v-695.38Q220-858 241-879q21-21 51.31-21h376.92q29.92 0 51.11 21.19 21.2 21.2 21.2 51.12v126.31q16.46 4.3 27.46 17.19 11 12.88 11 29.96v75.38q0 17.08-11 29.97-11 12.88-27.46 17.19v399.38q0 29.92-21.2 51.12Q699.15-60 669.23-60H292.31Zm0-60h376.92q5.38 0 8.85-3.46 3.46-3.46 3.46-8.85v-695.38q0-5.39-3.46-8.85-3.47-3.46-8.85-3.46H292.31q-5.39 0-8.85 3.46t-3.46 8.85v695.38q0 5.39 3.46 8.85t8.85 3.46ZM280-120v-720 720Zm115.38-604.62H490q12.77 0 21.38-8.61 8.62-8.62 8.62-21.38 0-12.77-8.62-21.39-8.61-8.61-21.38-8.61H371.54q-15.46 0-25.81 10.34-10.34 10.35-10.34 25.81V-630q0 12.77 8.61 21.38 8.62 8.62 21.39 8.62 12.76 0 21.38-8.62 8.61-8.61 8.61-21.38v-94.62Z"/></svg>