<svg xmlns="http://www.w3.org/2000/svg" width="20" height="19.901" viewBox="0 0 20 19.901">
  <path id="settings_FILL0_wght400_GRAD0_opsz24_1_" data-name="settings_FILL0_wght400_GRAD0_opsz24 (1)" d="M85.264-860.1l-.4-3.184a3.774,3.774,0,0,1-.609-.3q-.286-.174-.56-.373l-2.96,1.244L78-867.438l2.562-1.94a2.375,2.375,0,0,1-.025-.336v-.672a2.375,2.375,0,0,1,.025-.336L78-872.662l2.736-4.726,2.96,1.244a6.791,6.791,0,0,1,.572-.373,5.014,5.014,0,0,1,.6-.3l.4-3.184h5.473l.4,3.184a3.779,3.779,0,0,1,.609.3q.286.174.56.373l2.96-1.244L98-872.662l-2.562,1.94a2.375,2.375,0,0,1,.025.336v.672a1.221,1.221,0,0,1-.05.336l2.562,1.94-2.736,4.726L92.3-863.955a6.776,6.776,0,0,1-.572.373,5.005,5.005,0,0,1-.6.3l-.4,3.184ZM87-862.09H88.97l.348-2.637a5.577,5.577,0,0,0,1.43-.585,5.946,5.946,0,0,0,1.206-.933l2.463,1.02.97-1.692-2.139-1.617a3.51,3.51,0,0,0,.174-.734,6.116,6.116,0,0,0,.05-.784,6.116,6.116,0,0,0-.05-.784,3.511,3.511,0,0,0-.174-.734l2.139-1.617-.97-1.692-2.463,1.045a5.524,5.524,0,0,0-1.206-.958,5.575,5.575,0,0,0-1.43-.585L89-878.01H87.03l-.348,2.637a5.575,5.575,0,0,0-1.43.585,5.946,5.946,0,0,0-1.206.933l-2.463-1.02-.97,1.692,2.139,1.592a4.05,4.05,0,0,0-.174.746,6.031,6.031,0,0,0-.05.8,5.833,5.833,0,0,0,.05.771,4.048,4.048,0,0,0,.174.746l-2.139,1.617.97,1.692,2.463-1.045a5.527,5.527,0,0,0,1.206.958,5.577,5.577,0,0,0,1.43.585Z" transform="translate(-78 880)"/>
</svg>
