<?xml version="1.0" encoding="UTF-8" standalone="no"?>
<svg
   width="48"
   height="48"
   viewBox="0 0 48 48"
   version="1.1"
   id="svg62"
   sodipodi:docname="settings1_24dp.svg"
   inkscape:version="1.1.2 (0a00cf5339, 2022-02-04)"
   xmlns:inkscape="http://www.inkscape.org/namespaces/inkscape"
   xmlns:sodipodi="http://sodipodi.sourceforge.net/DTD/sodipodi-0.dtd"
   xmlns="http://www.w3.org/2000/svg"
   xmlns:svg="http://www.w3.org/2000/svg">
  <defs
     id="defs66" />
  <sodipodi:namedview
     id="namedview64"
     pagecolor="#ffffff"
     bordercolor="#666666"
     borderopacity="1.0"
     inkscape:pageshadow="2"
     inkscape:pageopacity="0.0"
     inkscape:pagecheckerboard="0"
     showgrid="false"
     inkscape:zoom="16.8125"
     inkscape:cx="23.226766"
     inkscape:cy="24.951673"
     inkscape:window-width="1850"
     inkscape:window-height="1016"
     inkscape:window-x="1990"
     inkscape:window-y="27"
     inkscape:window-maximized="1"
     inkscape:current-layer="svg62"
     width="48px" />
  <path
     id="settings_FILL0_wght400_GRAD0_opsz24_1_"
     data-name="settings_FILL0_wght400_GRAD0_opsz24 (1)"
     d="m 18.528,43.802 -0.8,-6.368 a 7.548,7.548 0 0 1 -1.218,-0.6 Q 15.938,36.486 15.39,36.088 L 9.47,38.576 4,29.126 9.124,25.246 A 4.75,4.75 0 0 1 9.074,24.574 V 23.23 a 4.75,4.75 0 0 1 0.05,-0.672 L 4,18.678 9.472,9.226 l 5.92,2.488 a 13.582,13.582 0 0 1 1.144,-0.746 10.028,10.028 0 0 1 1.2,-0.6 L 18.536,4 h 10.946 l 0.8,6.368 a 7.558,7.558 0 0 1 1.218,0.6 q 0.572,0.348 1.12,0.746 l 5.92,-2.488 5.46,9.452 -5.124,3.88 a 4.75,4.75 0 0 1 0.05,0.672 v 1.344 a 2.442,2.442 0 0 1 -0.1,0.672 l 5.124,3.88 -5.472,9.452 -5.878,-2.486 a 13.552,13.552 0 0 1 -1.144,0.746 10.01,10.01 0 0 1 -1.2,0.6 l -0.8,6.368 z M 22,39.822 h 3.94 l 0.696,-5.274 a 11.154,11.154 0 0 0 2.86,-1.17 11.892,11.892 0 0 0 2.412,-1.866 l 4.926,2.04 1.94,-3.384 -4.278,-3.234 a 7.02,7.02 0 0 0 0.348,-1.468 12.232,12.232 0 0 0 0.1,-1.568 12.232,12.232 0 0 0 -0.1,-1.568 7.022,7.022 0 0 0 -0.348,-1.468 l 4.278,-3.234 -1.94,-3.384 -4.926,2.09 a 11.048,11.048 0 0 0 -2.412,-1.916 11.15,11.15 0 0 0 -2.86,-1.17 L 26,7.982 h -3.94 l -0.696,5.274 a 11.15,11.15 0 0 0 -2.86,1.17 11.892,11.892 0 0 0 -2.412,1.866 l -4.926,-2.04 -1.94,3.384 4.278,3.184 a 8.1,8.1 0 0 0 -0.348,1.492 12.062,12.062 0 0 0 -0.1,1.6 11.666,11.666 0 0 0 0.1,1.542 8.096,8.096 0 0 0 0.348,1.492 l -4.278,3.234 1.94,3.384 4.926,-2.09 a 11.054,11.054 0 0 0 2.412,1.916 11.154,11.154 0 0 0 2.86,1.17 z"
     style="stroke-width:2" />
</svg>
