<svg xmlns="http://www.w3.org/2000/svg" height="24px" viewBox="0 -960 960 960" width="24px" fill="#000000"><path d="M501.38-374.77q8.62-8.61 8.62-21.38v-167.7q0-12.77-8.62-21.38-8.61-8.62-21.38-8.62t-21.38 8.62q-8.62 8.61-8.62 21.38v167.7q0 12.77 8.62 21.38 8.61 8.62 21.38 8.62t21.38-8.62Zm105.7 1.85q6.77-6.77 6.77-17.08v-56.15h104.61q15.08 0 25.23-10.16 10.16-10.15 10.16-25.23v-76.92q0-15.08-10.16-25.23-10.15-10.16-25.23-10.16H584.23q-7.23 0-12.65 5.43-5.43 5.42-5.43 12.65V-390q0 10.31 6.77 17.08 6.77 6.77 17.08 6.77 10.31 0 17.08-6.77ZM230-366.15h128.46q15.08 0 25.23-10.16 10.16-10.15 10.16-25.23v-66.92q0-15.08-10.16-25.23-10.15-10.16-25.23-10.16H253.85v-42.3H370q10.31 0 17.08-6.77 6.77-6.77 6.77-17.08 0-10.31-6.77-17.08-6.77-6.77-17.08-6.77H241.54q-15.08 0-25.23 10.16-10.16 10.15-10.16 25.23v66.92q0 15.08 10.16 25.23 10.15 10.16 25.23 10.16h104.61v42.3H230q-10.31 0-17.08 6.77-6.77 6.77-6.77 17.08 0 10.31 6.77 17.08 6.77 6.77 17.08 6.77Zm383.85-127.7v-52.3h92.3v52.3h-92.3ZM172.31-180Q142-180 121-201q-21-21-21-51.31v-455.38Q100-738 121-759q21-21 51.31-21h615.38Q818-780 839-759q21 21 21 51.31v455.38Q860-222 839-201q-21 21-51.31 21H172.31Zm0-60h615.38q4.62 0 8.46-3.85 3.85-3.84 3.85-8.46v-455.38q0-4.62-3.85-8.46-3.84-3.85-8.46-3.85H172.31q-4.62 0-8.46 3.85-3.85 3.84-3.85 8.46v455.38q0 4.62 3.85 8.46 3.84 3.85 8.46 3.85ZM160-240v-480 480Z"/></svg>