<?xml version="1.0" encoding="utf-8"?>
<!-- Generator: Adobe Illustrator 24.3.0, SVG Export Plug-In . SVG Version: 6.00 Build 0)  -->
<svg version="1.1" id="Layer_1" xmlns="http://www.w3.org/2000/svg" xmlns:xlink="http://www.w3.org/1999/xlink" x="0px" y="0px"
	 viewBox="0 0 24 24" style="enable-background:new 0 0 24 24;" xml:space="preserve">
<g>
	<path d="M14.2,5.1c-0.3-0.6-1.1-0.7-1.7-0.3l-5,3.5H5.2c-1,0-1.8,0.9-1.8,1.9v3.7c0,1,0.9,1.8,1.8,1.8h2.2l5,3.5
		c0.2,0.2,0.4,0.2,0.7,0.2c0.7,0,1.2-0.5,1.3-1.2V5.8C14.5,5.5,14.4,5.3,14.2,5.1z M13.2,18.2L13.2,18.2l-4.9-3.5l-0.3-0.3H7.1H6.9
		H5.2c-0.3,0-0.6-0.3-0.6-0.6v-3.7c0-0.3,0.3-0.6,0.6-0.6h1.6H7h0.9l0.3-0.3l4.9-3.5L13.2,18.2L13.2,18.2z"/>
	<path d="M18.1,12c0,1.3-0.5,2.5-1.4,3.5c-0.3,0.3-0.6,0.3-0.9,0c-0.3-0.3-0.3-0.6,0-0.9c1.4-1.5,1.4-3.7,0-5.2
		c-0.3-0.3-0.3-0.6,0-0.9c0.3-0.3,0.6-0.3,0.9,0C17.7,9.5,18.1,10.7,18.1,12z"/>
	<path d="M18,6c-0.3-0.3-0.6-0.2-0.9,0c-0.3,0.3-0.2,0.6,0,0.9c2.9,2.5,3,6.9,0.5,9.7c-0.2,0.2-0.3,0.3-0.5,0.5
		c-0.3,0.3-0.3,0.6,0,0.9s0.6,0.3,0.9,0c3.3-3,3.5-8.1,0.6-11.4C18.4,6.4,18.1,6.2,18,6L18,6z"/>
</g>
<g>
	<path d="M4.5,19.5c-0.2,0-0.3-0.1-0.4-0.2c-0.3-0.3-0.3-0.6-0.1-0.9L15.7,4.8c0.3-0.3,0.6-0.3,0.9-0.1c0.3,0.3,0.3,0.6,0.1,0.9
		L4.9,19.4C4.8,19.4,4.6,19.5,4.5,19.5z"/>
</g>
</svg>
