<svg xmlns="http://www.w3.org/2000/svg" width="20.021" height="19.762" viewBox="0 0 20.021 19.762"><defs><style>.a{fill:none;}.a,.b{stroke:#000;stroke-width:1.5px;}.b{fill:#fff;}</style></defs><g transform="translate(8351.25 7947.25)"><path class="a" d="M150.421,60a6.761,6.761,0,0,0-6.761,6.761A7.626,7.626,0,0,0,146.148,72c.983,1.023,4.273,4,4.273,4s3.558-3.224,3.876-3.541c1.5-1.5,2.884-3.417,2.884-5.7A6.761,6.761,0,0,0,150.421,60Z" transform="translate(-8489.16 -8006.5)"/><path class="b" d="M150.421,60a6.761,6.761,0,0,0-6.761,6.761A7.626,7.626,0,0,0,146.148,72c.983,1.023,4.273,4,4.273,4s3.558-3.224,3.876-3.541c1.5-1.5,2.884-3.417,2.884-5.7A6.761,6.761,0,0,0,150.421,60Z" transform="translate(-8494.16 -8004.5)"/><path d="M7.63,4.651,4.887,7.394V0H3.626V7.394L.883,4.651,0,5.549,4.257,9.806,8.529,5.55Z" transform="translate(-8344.738 -7930.079) rotate(-135)"/></g></svg>