<?xml version="1.0" encoding="utf-8"?>
<!-- Generator: Adobe Illustrator 24.3.0, SVG Export Plug-In . SVG Version: 6.00 Build 0)  -->
<svg version="1.1" id="Layer_1" xmlns="http://www.w3.org/2000/svg" xmlns:xlink="http://www.w3.org/1999/xlink" x="0px" y="0px"
	 viewBox="0 0 24 24" style="enable-background:new 0 0 24 24;" xml:space="preserve">
<path d="M14.5,2.1c-2,0-3.7,0.8-5.1,2C5.3,4.2,2,7.5,2,11.7c0.1,2.2,1.1,4.3,2.7,5.7c1,1,4.2,3.9,4.3,4l0.5,0.5l0.5-0.5
	c0.3-0.2,2-1.8,3.1-2.8c0.5,0.5,0.9,0.8,0.9,0.8l0.5,0.5l0.5-0.5c0.4-0.3,3.6-3.2,3.9-3.6C21,13.8,22,11.7,22,9.6
	C22,5.5,18.6,2.1,14.5,2.1z M9.5,19.8c-0.8-0.8-2.6-2.3-3.5-3.2l5.1-5.1v3.9l1.3,0v-6l-6,0v1.3h3.9l-5.1,5.1c-1-1.1-1.6-2.6-1.7-4.1
	c0-3.3,2.7-6,6-6c3.3,0,6,2.7,6,6c0,1.7-0.9,3.4-2.7,5.2C12.6,17,10.9,18.6,9.5,19.8z M17.8,14.8c-0.2,0.2-2,1.8-3.3,3.1
	c-0.1-0.1-0.2-0.2-0.3-0.3c1.9-2,2.8-3.9,2.8-5.9c0-3.4-2.3-6.3-5.5-7.2c0.9-0.5,1.9-0.8,3-0.8c3.3,0,6,2.7,6,6
	C20.5,11.3,19.6,13,17.8,14.8z"/>
</svg>
