<?xml version="1.0" encoding="utf-8"?>
<!-- Generator: Adobe Illustrator 24.3.0, SVG Export Plug-In . SVG Version: 6.00 Build 0)  -->
<svg version="1.1" id="Layer_1" xmlns="http://www.w3.org/2000/svg" xmlns:xlink="http://www.w3.org/1999/xlink" x="0px" y="0px"
	 viewBox="0 0 24 24" style="enable-background:new 0 0 24 24;" xml:space="preserve">
<g>
	<path d="M3.4,5.4L3.4,5.4C2.6,5.4,2,4.8,2,4V3.9c0-0.7,0.6-1.3,1.3-1.3h0.1c0.7,0,1.3,0.6,1.3,1.3V4C4.8,4.8,4.2,5.4,3.4,5.4z"/>
	<path d="M21,3H8.9c-0.5,0-1,0.4-1,1v0c0,0.5,0.4,1,1,1H21c0.5,0,1-0.4,1-1v0C22,3.4,21.6,3,21,3z"/>
	<path d="M3.4,13.4L3.4,13.4C2.6,13.4,2,12.8,2,12V12c0-0.7,0.6-1.3,1.3-1.3h0.1c0.7,0,1.3,0.6,1.3,1.3V12
		C4.8,12.8,4.2,13.4,3.4,13.4z"/>
	<path d="M21,13H8.9c-0.5,0-1-0.4-1-1v0c0-0.5,0.4-1,1-1H21c0.5,0,1,0.4,1,1v0C22,12.6,21.6,13,21,13z"/>
	<path d="M3.4,21.4L3.4,21.4c-0.8,0-1.4-0.6-1.4-1.3V20c0-0.7,0.6-1.3,1.3-1.3h0.1c0.7,0,1.3,0.6,1.3,1.3v0.1
		C4.8,20.8,4.2,21.4,3.4,21.4z"/>
	<path d="M21,21H8.9c-0.5,0-1-0.5-1-1v0c0-0.5,0.4-1,1-1H21c0.5,0,1,0.4,1,1v0C22,20.6,21.6,21,21,21z"/>
</g>
</svg>
