<?xml version="1.0" encoding="utf-8"?>
<!-- Generator: Adobe Illustrator 24.3.0, SVG Export Plug-In . SVG Version: 6.00 Build 0)  -->
<svg version="1.1" id="Layer_1" xmlns="http://www.w3.org/2000/svg" xmlns:xlink="http://www.w3.org/1999/xlink" x="0px" y="0px"
	 viewBox="240 240 24 24" style="enable-background:new 0 0 24 24;" xml:space="preserve">
<g id="noun-text-edit-1483720">
	<g id="Path_259">
		<path d="M252.6,242v3.6h-1.3v-1.8v-0.5h-0.5h-2.3H248v0.5v11.7v0.5h0.5h1.8v1.3h-6V256h1.8h0.5v-0.5v-11.7v-0.5h-0.5h-2.3h-0.5
			v0.5v1.8H242V242H252.6"/>
	</g>
	<g id="Path_260">
		<path d="M262,256v1.3h-6V256H262"/>
	</g>
	<g id="Path_261">
		<path d="M262,260.7v1.3h-20v-1.3H262"/>
	</g>
	<g id="Path_262">
		<path d="M257.3,251.4v1.3H256v-1.3H257.3"/>
	</g>
	<g id="Path_263">
		<path d="M262,246.7v1.3h-6v-1.3H262"/>
	</g>
	<g id="Path_264">
		<path d="M259.7,242v1.3H256V242H259.7"/>
	</g>
</g>
</svg>
