<?xml version="1.0" encoding="utf-8"?>
<!-- Generator: Adobe Illustrator 24.3.0, SVG Export Plug-In . SVG Version: 6.00 Build 0)  -->
<svg version="1.1" id="Layer_1" xmlns="http://www.w3.org/2000/svg" xmlns:xlink="http://www.w3.org/1999/xlink" x="0px" y="0px"
	 viewBox="0 0 24 24" style="enable-background:new 0 0 24 24;" xml:space="preserve">
<path d="M20.9,4.6H15V4.2C15,3,14,2,12.8,2h-1.6C10,2,9,3,9,4.2v0.3H3.1c-0.4,0-0.7,0.3-0.7,0.7s0.3,0.7,0.7,0.7h1.4l0.7,13.8
	C5.2,21,6.3,22,7.6,22h8.9c1.3,0,2.4-1,2.4-2.3l0.7-13.8h1.4c0.4,0,0.7-0.3,0.7-0.7S21.3,4.6,20.9,4.6z M10.3,4.6V4.2
	c0-0.5,0.4-0.8,0.8-0.8h1.6c0.5,0,0.8,0.4,0.8,0.8v0.3H10.3z M18.1,5.9l-0.7,13.7c0,0.6-0.5,1-1,1H7.6c-0.6,0-1-0.4-1-1L5.8,5.9
	H18.1z"/>
</svg>
