<svg xmlns="http://www.w3.org/2000/svg" width="15.5" height="20" viewBox="0 0 15.5 20"><g transform="translate(-795.5 -269)"><g transform="translate(797.4 275.1)"><g transform="translate(3.1 1.9)"><g transform="translate(0)"><path d="M-.134,5.9a.7.7,0,0,1-.383-.1A.763.763,0,0,1-.9,5.1V-.3A.8.8,0,0,1-.517-1h0A.755.755,0,0,1,.249-1L4.881,1.721a.763.763,0,0,1,0,1.323L.249,5.8A.7.7,0,0,1-.134,5.9Zm-.1-6.408a.316.316,0,0,0-.1.244V5.1a.211.211,0,0,0,.1.209.294.294,0,0,0,.244,0L4.637,2.626a.286.286,0,0,0,.139-.209.191.191,0,0,0-.139-.209L.005-.508a.3.3,0,0,0-.244,0Z" transform="translate(0.9 1.1)"/></g></g></g><path d="M14.2,2.3a1.135,1.135,0,0,0-.8-.3H5.5A1.155,1.155,0,0,0,4.3,3.2V20.8A1.155,1.155,0,0,0,5.5,22H18.6a1.155,1.155,0,0,0,1.2-1.2V8.4a1.136,1.136,0,0,0-.3-.8ZM18,7.7H14v-4Zm.6,13.2H5.5V3.2h7.4V7.7a1.155,1.155,0,0,0,1.2,1.2h4.5v12Z" transform="translate(791.2 267)"/></g></svg>