<?xml version="1.0" encoding="utf-8"?>
<!-- Generator: Adobe Illustrator 24.3.0, SVG Export Plug-In . SVG Version: 6.00 Build 0)  -->
<svg version="1.1" id="Layer_4" xmlns="http://www.w3.org/2000/svg" xmlns:xlink="http://www.w3.org/1999/xlink" x="0px" y="0px"
	 viewBox="0 0 1658.4 552.8" style="enable-background:new 0 0 1658.4 552.8;" xml:space="preserve">
<style type="text/css">
	.st0{fill:#FFFFFF;}
</style>
<path class="st0" d="M568.6,315.2l-0.4-29v-62.3v-0.1c0-3.5-0.5-7.3-1-10.2c-0.1-0.3-0.2-0.7-0.3-1c0-0.1-0.1-0.3-0.3-0.7
	c-3-7.6-17-28.9-83.2-44.3c-0.9-0.2-1.9-0.5-2.8-0.7c14.4-39.8,16.6-65.1,15.2-80.5c0-0.1,0-0.2,0-0.4c0-0.3,0-0.5-0.1-0.8
	c-1-9.9-3.5-15.5-5.1-18.1c-0.1-0.2-0.3-0.5-0.5-0.7c-0.5-0.6-1.1-1.2-1.7-1.8c-0.5-0.5-0.9-1-1.4-1.4c-0.1-0.1-0.2-0.2-0.3-0.3
	l-0.1-0.1c-0.1-0.1-0.2-0.2-0.4-0.3c-1.5-1.4-3.1-2.5-4.4-3.3L397.3,4.7c-0.6-0.8-1.4-1.4-2.3-1.9c-1.3-0.7-2.5-0.9-3.3-1.1
	c-0.3,0-0.6-0.1-1-0.2c-0.3-0.1-0.5-0.1-0.8-0.2c-1.5-0.3-34.1-5.8-99.1,67.6c-64.3-68.6-98-68-104.2-67.2c-2.6,0.2-5.1,1.3-5.8,1.7
	c-0.2,0.1-0.4,0.3-0.6,0.4L94.1,59.3c-0.3,0.2-0.7,0.4-1.1,0.8c-0.4,0.3-0.9,0.5-1.3,0.8l-2.3,1.5c-1,0.6-1.7,1.4-2.2,2.4
	c-0.6,0.6-1.2,1.3-1.9,2.2c-1.8,2.6-16.1,27.4,10.2,99.8C40.8,180,20,197.4,12.3,207.1c-1.9,2.3-3,4.2-3.6,5.4
	c-0.2,0.3-0.3,0.6-0.4,0.9c-0.2,0.7-0.4,1.4-0.6,2.1c-0.4,0.9-0.6,1.8-0.6,2.8v1.7C7,221.6,7,223.1,7,224.6v98.7
	c0,1.1,0.3,2.2,0.8,3.2c0.2,0.6,0.4,1.2,0.7,1.6c3.1,8.9,17.8,30.6,85.4,45.4c-21.3,59.9-15,85.9-9.1,96.2c0.6,1.3,1.7,3.5,3.8,4.8
	c0.3,0.2,0.7,0.5,1,0.7l83.1,52.8c0.3,0.2,0.6,0.3,0.9,0.5c1.2,0.7,2.8,1.5,4.5,2.3c1.3,0.6,2.7,1.1,4.1,1.6c0.7,0.2,1,0.3,1.7,0.3
	c1.4,0.2,3,0.3,4.7,0.3c15.3,0,45.2-10,95.7-64c0.2-0.2,0.4-0.4,0.5-0.6c57.1,60.8,89.8,67.3,101.2,67.3c0,0,0,0,0.1,0s0.2,0,0.2,0
	c1.6,0,2.7-0.1,3.3-0.3c0.3,0,0.7-0.1,1-0.2c3.9-1.3,7.3-3.2,9.7-4.6l85.8-55.6c1.5-1,2.6-2.5,2.9-4.2c0.4-0.6,0.8-1.2,1.1-1.7
	c3.6-5.3,14.5-29-10.7-96.2c75-17.2,86.4-40.8,88-45.5l0.3-0.9c0.5-1.2,1-2.7,1-4.6v-5.7C568.7,315.9,568.7,315.5,568.6,315.2z
	 M109,471.4c28.7-11.7,62-40.7,105.4-91.1c22.6,32.1,43,57.6,61.1,77.8c-53.4,56-82.3,60.8-90.3,60.9c-1.8-0.7-3.9-1.7-5.7-2.8
	L109,471.4z M393.2,519.2c-2.1,1.2-4.2,2.3-6.2,3c-5.4,0.3-66.4-1.3-191.3-193.5c-9.3-14.4-20.8-33.4-29-47
	c35.9-4.6,70.4-7.1,104.7-7.8c0.4,0.1,0.7,0.1,1.1,0.1c0.1,0,0.1,0,0.1,0l3.5-0.1c0.2,0,0.3,0,0.5,0c0.6,1,1.3,1.9,1.9,2.8
	c1.3,1.8,2.5,3.7,3.7,5.5c0.2,0.3,0.4,0.5,0.6,0.8c22,33.1,45.7,64.8,70.4,94.3c0,0.1,0,0.1,0,0.1c41.5,48.2,81.2,81,113.7,94
	L393.2,519.2z M20.5,309v-84.4c0-2.7,0-4.8,0.5-6.5c3-5.2,37.6-55.3,266.9-55.3c21.2,0,42.2,0.8,57.6,1.4h0.1
	c-14.6,30.6-32.8,63.1-53.8,96.2h-14l0,0l0,0c-0.4,0-0.7,0-1.1,0c-38.7,0.2-79.6,3.3-121.9,9.2c-0.3,0.1-0.6,0.1-0.9,0.2
	c-0.2,0.1-0.4,0.1-0.6,0.2c-0.2,0-0.3,0-0.5,0.1C85.9,280.2,44.9,292.1,20.5,309z M357.9,362c-21.7-26.2-42.6-54.3-62-83.4
	c0.7-1.1,1.4-2.2,2.1-3.3c22.3-34.4,45-74,63.3-113.2c0.6-0.8,1.1-1.8,1.3-2.8c23.3-50.4,39.2-99.9,37.6-136.3l74,47.7
	c0.9,0.5,1.9,1.3,2.9,2.2c0,0,0.1,0.1,0.2,0.2c0.4,0.5,1,0.9,1.4,1.4c1.7,3.3,11.8,27.4-14,94.9c-0.3,0.8-0.4,1.6-0.4,2.5
	c-14.7,37.6-40.4,88.5-84.5,156.3c-2.7,4.2-5.7,8.8-8.6,13.4C366.4,349.1,361.4,356.9,357.9,362z M475.7,179.7
	c63.1,14.9,76.6,34.9,78,37.1c0.3,2.2,0.7,5,0.7,7.2v62.6l0.3,21.4c-29.4-20.4-77.9-30.3-123.9-37.1
	C451.4,234.8,465.8,204.7,475.7,179.7z M386,14.4c4.6,30.2-8.2,79.3-34.3,136.6l-5.7-0.2c-15.5-0.6-36.7-1.4-58.1-1.4
	c-14.5,0-28.2,0.2-41.2,0.6c30.1-45.2,48.9-66.3,49.1-66.5c0.5-0.5,0.9-1.1,1.1-1.7C351.2,19.1,380.6,14.6,386,14.4z M281.8,79.2
	c-7.7,9.2-25.9,32.1-51.6,71.4c-2.7,0.1-5.4,0.2-8,0.4c-25.9-56.1-37.3-104.1-32.3-136.1C196.7,15,226.5,19.9,281.8,79.2z
	 M95.3,75.8c0.3-0.3,0.6-0.6,0.9-0.9c1.2-1.6,2.9-3,5.1-4.3l74.1-47.8c-2,33.1,9.2,77.9,32.2,128.9c-40.8,2.5-73.3,7-99.2,12.4
	C86.7,105,93.4,80.9,95.3,75.8z M21.6,325c23.8-20.7,72.5-31.9,116.8-39.2c-16.8,23.4-33.6,60.7-39.5,74.6
	C40.2,348.2,25.2,331.3,21.6,325z M108,372.7c0.5-0.5,0.9-1.1,1.2-1.8c7.3-17.8,28.2-63.5,45.2-83.7c8.3,13.7,20.5,33.7,30.1,48.8
	c7.5,11.6,14.9,22.5,21.9,32.8c-47.6,56-82,85-110.6,93.1C92.7,455.7,85.7,433,108,372.7z M479.1,461.3c-0.4,0-0.9-0.2-1.5-0.3l0,0
	c-30.3-9.8-69.1-40.8-110.7-88.4c3.8-5.1,9.6-14.2,15.8-23.8c2.9-4.5,5.9-9.1,8.6-13.3c9-13.9,17.2-27,24.8-39.6
	c23.1,28.6,38.7,52,44.6,66.6c0.1,0.7,0.2,1.3,0.5,2C489.6,433.3,481.2,457.1,479.1,461.3z M474.3,360.6c-0.1-0.3-0.2-0.7-0.3-1
	c-7.6-20.9-31.4-52.5-50.5-76c0,0,0-0.1,0.1-0.1c50.2,7.1,104.1,17.6,130.4,40.8C551.6,328.2,537.8,346.3,474.3,360.6z"/>
<g>
	<g>
		<path class="st0" d="M786.3,106.6v150.2c0,86.2-69.7,156.5-155.9,156.5V371c62.8-0.6,113.6-51.4,113.6-114.2V106.6H786.3z
			 M793.7,30.7c0-16-13.1-28.6-28.6-28.6c-16,0-28.6,12.6-28.6,28.6c0,15.4,12.6,28.6,28.6,28.6C780.6,59.2,793.7,46.1,793.7,30.7z"
			/>
		<path class="st0" d="M1523,410.4V211.7c0-38.8-31.4-69.7-70.2-69.7c-38.8,0-70.2,31.4-70.2,70.2v198.1h-42.3V211.7
			c0-38.8-31.4-69.7-70.2-69.7c-38.3,0-69.7,31.4-69.7,70.2v198.1h-42.3V211.7c0-62.2,50.3-111.9,111.9-111.9
			c37.7,0,70.8,18.3,91.4,46.8c20.6-28.6,53.7-46.8,91.4-46.8c62.2,0,112.5,50.3,112.5,112.5v198.1H1523z"/>
		<path class="st0" d="M1616.1,59.2c-16,0-28.6-12.6-28.6-28.6c0-15.4,12.6-28.6,28.6-28.6s28.6,13.1,28.6,28.6
			C1644.6,46.7,1632.1,59.2,1616.1,59.2z M1637.2,106.6v303.8h-42.3V106.6H1637.2z"/>
		<path class="st0" d="M974.6,142.4c63.5,0,115.2,51.7,115.2,115.2v115.2H974.6c-63.5,0-115.2-51.7-115.2-115.2
			S911.1,142.4,974.6,142.4 M974.6,101.2c-86.4,0-156.4,70-156.4,156.4S888.3,414,974.6,414H1131V257.6
			C1131.1,171.2,1061,101.2,974.6,101.2L974.6,101.2z"/>
	</g>
	<g>
		<g>
			<path class="st0" d="M883.5,534.2h-8.8v-9.7c-6,6.3-14.4,10.3-23.7,10.3c-18,0-32.7-14.7-32.7-32.7s14.7-32.6,32.7-32.6
				s32.6,14.6,32.6,32.6L883.5,534.2L883.5,534.2z M874.6,502.1c0-13.1-10.6-23.7-23.7-23.7c-13.1,0-23.9,10.6-23.9,23.7
				s10.7,23.8,23.9,23.8C864,526,874.6,515.2,874.6,502.1z"/>
			<path class="st0" d="M945.9,497.7h32.2c0.1,1.4,0.2,3,0.2,4.4c0,18-14.5,32.7-32.6,32.7c-18,0-32.7-14.7-32.7-32.7
				s14.7-32.6,32.7-32.6c13.2,0,24.7,7.9,29.8,19.3h-10c-4.3-6.3-11.6-10.5-19.8-10.5c-13.1,0-23.9,10.6-23.9,23.7
				s10.7,23.8,23.9,23.8c11.6,0,21.2-8.3,23.4-19.4h-23.3L945.9,497.7L945.9,497.7z"/>
			<path class="st0" d="M1049.7,534.2h-8.8v-31.8c0-13.1-10.6-23.8-23.7-23.8s-23.7,10.7-23.7,23.8v31.8h-8.8v-32.1
				c0-18,14.5-32.4,32.6-32.4c18.1,0,32.6,14.7,32.6,32.7v31.8H1049.7z"/>
			<path class="st0" d="M1055.8,470.3h8.8v31.8c0,13.1,10.6,23.8,23.7,23.8s23.7-10.7,23.7-23.8v-31.8h8.8v32.1
				c0,18-14.5,32.4-32.6,32.4c-18,0-32.6-14.7-32.6-32.7v-31.8H1055.8z"/>
			<path class="st0" d="M1150.5,548.7v-46.6c0-18,14.5-32.6,32.6-32.6s32.7,14.6,32.7,32.6c0,18-14.5,32.7-32.7,32.7
				c-9.3,0-17.8-3.9-23.7-10.3v24.2H1150.5z M1183,526c13.2,0,23.8-10.7,23.8-23.8c0-13.1-10.6-23.7-23.8-23.7
				c-13.1,0-23.7,10.6-23.7,23.7C1159.3,515.2,1169.9,526,1183,526z"/>
			<path class="st0" d="M1287.1,534.2h-8.8v-9.7c-6,6.3-14.4,10.3-23.7,10.3c-18,0-32.7-14.7-32.7-32.7s14.7-32.6,32.7-32.6
				s32.6,14.6,32.6,32.6L1287.1,534.2L1287.1,534.2z M1278.3,502.1c0-13.1-10.6-23.7-23.7-23.7s-23.9,10.6-23.9,23.7
				s10.7,23.8,23.9,23.8C1267.7,526,1278.3,515.2,1278.3,502.1z"/>
			<path class="st0" d="M1349.4,506.5h8.9c-2.1,16-15.9,28.3-32.3,28.3c-18,0-32.7-14.7-32.7-32.7s14.7-32.6,32.7-32.6
				c16.5,0,30.2,12.3,32.3,28.1h-8.9c-2.1-11-11.8-19.3-23.4-19.3c-13.1,0-23.9,10.6-23.9,23.7c0,13.1,10.7,23.8,23.9,23.8
				C1337.5,526,1347.2,517.6,1349.4,506.5z"/>
			<path class="st0" d="M1424.4,523.1v11.1h-8.8v-11.1c0-13.1-10.7-24-23.8-24h-18.4v35.1h-8.8v-78.3h8.8v34.7h12.9
				c10.6,0,19.9-11,22.2-21.1h9.1c-1.4,8.6-6.7,18.6-13.4,23.5C1415.9,497.8,1424.4,509.5,1424.4,523.1z"/>
			<path class="st0" d="M1495.8,534.2h-8.8v-9.7c-6,6.3-14.4,10.3-23.7,10.3c-18,0-32.7-14.7-32.7-32.7s14.7-32.6,32.7-32.6
				s32.6,14.6,32.6,32.6L1495.8,534.2L1495.8,534.2z M1487,502.1c0-13.1-10.6-23.7-23.7-23.7s-23.9,10.6-23.9,23.7
				s10.7,23.8,23.9,23.8C1476.4,526,1487,515.2,1487,502.1z"/>
			<path class="st0" d="M1534.8,497.7h32.2c0.1,1.4,0.2,3,0.2,4.4c0,18-14.5,32.7-32.6,32.7c-18,0-32.7-14.7-32.7-32.7
				s14.7-32.6,32.7-32.6c13.2,0,24.7,7.9,29.8,19.3h-10c-4.3-6.3-11.6-10.5-19.8-10.5c-13.1,0-23.9,10.6-23.9,23.7
				s10.7,23.8,23.9,23.8c11.6,0,21.2-8.3,23.4-19.4h-23.3v-8.7L1534.8,497.7L1534.8,497.7z"/>
		</g>
		<path class="st0" d="M1635.3,489.6c-1.8-5-4.7-9.2-8.6-12.6c-4-3.4-8.8-5.7-14.3-6.7c-5.9-1.1-11.5-0.8-16.7,1s-9.6,4.9-13.2,9.2
			c-3.6,4.3-6,9.5-7.1,15.6s-0.8,11.8,1,17.2c1.8,5.3,5,9.9,9.4,13.6c4.4,3.7,9.9,6.2,16.3,7.4c2.5,0.5,4.9,0.7,7.3,0.7
			c2.3,0,4.6-0.2,6.8-0.7c4.4-0.9,8.4-2.8,11.8-5.6l0.3-0.3l-4.1-7.2l-0.5,0.4c-2.7,2.1-5.8,3.6-9.2,4.3c-3.4,0.7-7,0.7-10.8,0
			c-5.5-1.1-10.1-3.4-13.6-7c-3.3-3.4-5.3-7.6-6-12.5h52.2l0.1-0.4C1637.5,500.1,1637.1,494.6,1635.3,489.6z M1584.5,497.8
			c0-0.2,0.1-0.5,0.1-0.7c0.9-4.5,2.6-8.3,5.1-11.4s5.7-5.3,9.3-6.6c2.2-0.8,4.6-1.2,7.1-1.2c1.5,0,3.1,0.2,4.7,0.5
			c5.4,1,9.7,3.6,12.7,7.5c2.7,3.4,4.2,7.5,4.5,11.9"/>
	</g>
</g>
</svg>
